%TF.GenerationSoftware,KiCad,Pcbnew,8.0.4*%
%TF.CreationDate,2025-10-07T11:11:27+02:00*%
%TF.ProjectId,RobotSuiveurDeLigne,526f626f-7453-4756-9976-65757244654c,rev?*%
%TF.SameCoordinates,Original*%
%TF.FileFunction,Copper,L1,Top*%
%TF.FilePolarity,Positive*%
%FSLAX46Y46*%
G04 Gerber Fmt 4.6, Leading zero omitted, Abs format (unit mm)*
G04 Created by KiCad (PCBNEW 8.0.4) date 2025-10-07 11:11:27*
%MOMM*%
%LPD*%
G01*
G04 APERTURE LIST*
G04 Aperture macros list*
%AMRoundRect*
0 Rectangle with rounded corners*
0 $1 Rounding radius*
0 $2 $3 $4 $5 $6 $7 $8 $9 X,Y pos of 4 corners*
0 Add a 4 corners polygon primitive as box body*
4,1,4,$2,$3,$4,$5,$6,$7,$8,$9,$2,$3,0*
0 Add four circle primitives for the rounded corners*
1,1,$1+$1,$2,$3*
1,1,$1+$1,$4,$5*
1,1,$1+$1,$6,$7*
1,1,$1+$1,$8,$9*
0 Add four rect primitives between the rounded corners*
20,1,$1+$1,$2,$3,$4,$5,0*
20,1,$1+$1,$4,$5,$6,$7,0*
20,1,$1+$1,$6,$7,$8,$9,0*
20,1,$1+$1,$8,$9,$2,$3,0*%
G04 Aperture macros list end*
%TA.AperFunction,ComponentPad*%
%ADD10RoundRect,0.319800X-0.705200X-0.705200X0.705200X-0.705200X0.705200X0.705200X-0.705200X0.705200X0*%
%TD*%
%TA.AperFunction,ComponentPad*%
%ADD11C,2.050000*%
%TD*%
%TA.AperFunction,ComponentPad*%
%ADD12C,2.100000*%
%TD*%
%TA.AperFunction,ComponentPad*%
%ADD13O,2.100000X2.100000*%
%TD*%
%TA.AperFunction,ComponentPad*%
%ADD14RoundRect,0.319800X-0.705200X0.705200X-0.705200X-0.705200X0.705200X-0.705200X0.705200X0.705200X0*%
%TD*%
%TA.AperFunction,ComponentPad*%
%ADD15C,2.000000*%
%TD*%
%TA.AperFunction,ComponentPad*%
%ADD16RoundRect,0.308824X-0.741176X0.741176X-0.741176X-0.741176X0.741176X-0.741176X0.741176X0.741176X0*%
%TD*%
%TA.AperFunction,ComponentPad*%
%ADD17R,2.000000X2.000000*%
%TD*%
%TA.AperFunction,ComponentPad*%
%ADD18O,2.000000X2.000000*%
%TD*%
%TA.AperFunction,ViaPad*%
%ADD19C,2.000000*%
%TD*%
%TA.AperFunction,Conductor*%
%ADD20C,0.600000*%
%TD*%
%TA.AperFunction,Conductor*%
%ADD21C,0.400000*%
%TD*%
G04 APERTURE END LIST*
D10*
%TO.P,U6,1,A*%
%TO.N,Net-(U6-A)*%
X186500000Y-66960000D03*
D11*
%TO.P,U6,2,K*%
%TO.N,GND*%
X186500000Y-69500000D03*
%TO.P,U6,3,C*%
%TO.N,/D1*%
X189300000Y-69500000D03*
%TO.P,U6,4,E*%
%TO.N,GND*%
X189300000Y-66960000D03*
%TD*%
D12*
%TO.P,R10,1*%
%TO.N,VCC*%
X117660000Y-70500000D03*
D13*
%TO.P,R10,2*%
%TO.N,/D0*%
X107500000Y-70500000D03*
%TD*%
D12*
%TO.P,R12,1*%
%TO.N,VCC*%
X170420000Y-70000000D03*
D13*
%TO.P,R12,2*%
%TO.N,/D1*%
X180580000Y-70000000D03*
%TD*%
D10*
%TO.P,U1,1,A*%
%TO.N,Net-(U1-A)*%
X136600000Y-93000000D03*
D11*
%TO.P,U1,2,K*%
%TO.N,GND*%
X136600000Y-95540000D03*
%TO.P,U1,3,C*%
%TO.N,/AN0*%
X139400000Y-95540000D03*
%TO.P,U1,4,E*%
%TO.N,GND*%
X139400000Y-93000000D03*
%TD*%
D12*
%TO.P,R2,1*%
%TO.N,VCC*%
X120920000Y-95500000D03*
D13*
%TO.P,R2,2*%
%TO.N,/AN0*%
X131080000Y-95500000D03*
%TD*%
D12*
%TO.P,R1,1*%
%TO.N,VCC*%
X120920000Y-91000000D03*
D13*
%TO.P,R1,2*%
%TO.N,Net-(U1-A)*%
X131080000Y-91000000D03*
%TD*%
D12*
%TO.P,R7,1*%
%TO.N,VCC*%
X167080000Y-91000000D03*
D13*
%TO.P,R7,2*%
%TO.N,Net-(U4-A)*%
X156920000Y-91000000D03*
%TD*%
D12*
%TO.P,R5,1*%
%TO.N,VCC*%
X151000000Y-72420000D03*
D13*
%TO.P,R5,2*%
%TO.N,Net-(U3-A)*%
X151000000Y-82580000D03*
%TD*%
D10*
%TO.P,U2,1,A*%
%TO.N,Net-(U2-A)*%
X129000000Y-76420000D03*
D11*
%TO.P,U2,2,K*%
%TO.N,GND*%
X129000000Y-78960000D03*
%TO.P,U2,3,C*%
%TO.N,/AN1*%
X131800000Y-78960000D03*
%TO.P,U2,4,E*%
%TO.N,GND*%
X131800000Y-76420000D03*
%TD*%
D12*
%TO.P,R6,1*%
%TO.N,VCC*%
X164000000Y-73920000D03*
D13*
%TO.P,R6,2*%
%TO.N,/AN2*%
X164000000Y-84080000D03*
%TD*%
D12*
%TO.P,R3,1*%
%TO.N,VCC*%
X124000000Y-73840000D03*
D13*
%TO.P,R3,2*%
%TO.N,Net-(U2-A)*%
X124000000Y-84000000D03*
%TD*%
D12*
%TO.P,R9,1*%
%TO.N,VCC*%
X117580000Y-66500000D03*
D13*
%TO.P,R9,2*%
%TO.N,Net-(U5-A)*%
X107420000Y-66500000D03*
%TD*%
D12*
%TO.P,R4,1*%
%TO.N,VCC*%
X137000000Y-72420000D03*
D13*
%TO.P,R4,2*%
%TO.N,/AN1*%
X137000000Y-82580000D03*
%TD*%
D12*
%TO.P,R11,1*%
%TO.N,VCC*%
X170420000Y-66000000D03*
D13*
%TO.P,R11,2*%
%TO.N,Net-(U6-A)*%
X180580000Y-66000000D03*
%TD*%
D14*
%TO.P,U5,1,A*%
%TO.N,Net-(U5-A)*%
X102500000Y-66700000D03*
D11*
%TO.P,U5,2,K*%
%TO.N,GND*%
X99960000Y-66700000D03*
%TO.P,U5,3,C*%
%TO.N,/D0*%
X99960000Y-69500000D03*
%TO.P,U5,4,E*%
%TO.N,GND*%
X102500000Y-69500000D03*
%TD*%
D10*
%TO.P,U4,1,A*%
%TO.N,Net-(U4-A)*%
X148550000Y-93000000D03*
D11*
%TO.P,U4,2,K*%
%TO.N,GND*%
X148550000Y-95540000D03*
%TO.P,U4,3,C*%
%TO.N,/AN3*%
X151350000Y-95540000D03*
%TO.P,U4,4,E*%
%TO.N,GND*%
X151350000Y-93000000D03*
%TD*%
D12*
%TO.P,R8,1*%
%TO.N,VCC*%
X167080000Y-95500000D03*
D13*
%TO.P,R8,2*%
%TO.N,/AN3*%
X156920000Y-95500000D03*
%TD*%
D10*
%TO.P,U3,1,A*%
%TO.N,Net-(U3-A)*%
X156000000Y-76460000D03*
D11*
%TO.P,U3,2,K*%
%TO.N,GND*%
X156000000Y-79000000D03*
%TO.P,U3,3,C*%
%TO.N,/AN2*%
X158800000Y-79000000D03*
%TO.P,U3,4,E*%
%TO.N,GND*%
X158800000Y-76460000D03*
%TD*%
D15*
%TO.P,C1,1*%
%TO.N,VCC*%
X113000000Y-104000000D03*
%TO.P,C1,2*%
%TO.N,GND*%
X113000000Y-99000000D03*
%TD*%
D16*
%TO.P,J2,1,Pin_1*%
%TO.N,VCC*%
X138920000Y-101000000D03*
D12*
%TO.P,J2,2,Pin_2*%
%TO.N,Net-(J2-Pin_2)*%
X138920000Y-103540000D03*
%TO.P,J2,3,Pin_3*%
%TO.N,/AN0*%
X141460000Y-101000000D03*
%TO.P,J2,4,Pin_4*%
%TO.N,Net-(J2-Pin_4)*%
X141460000Y-103540000D03*
%TO.P,J2,5,Pin_5*%
%TO.N,/AN1*%
X144000000Y-101000000D03*
%TO.P,J2,6,Pin_6*%
%TO.N,/D0*%
X144000000Y-103540000D03*
%TO.P,J2,7,Pin_7*%
%TO.N,/AN2*%
X146540000Y-101000000D03*
%TO.P,J2,8,Pin_8*%
%TO.N,/D1*%
X146540000Y-103540000D03*
%TO.P,J2,9,Pin_9*%
%TO.N,/AN3*%
X149080000Y-101000000D03*
%TO.P,J2,10,Pin_10*%
%TO.N,GND*%
X149080000Y-103540000D03*
%TD*%
D17*
%TO.P,C2,1*%
%TO.N,VCC*%
X122000000Y-103000000D03*
D15*
%TO.P,C2,2*%
%TO.N,GND*%
X122000000Y-100500000D03*
%TD*%
D18*
%TO.P,J1,Echo,Echo*%
%TO.N,Net-(J2-Pin_4)*%
X145080000Y-63000000D03*
D17*
%TO.P,J1,Gnd,Gnd*%
%TO.N,GND*%
X147620000Y-63000000D03*
D18*
%TO.P,J1,Trig,Trig*%
%TO.N,Net-(J2-Pin_2)*%
X142540000Y-63000000D03*
%TO.P,J1,Vcc,Vcc*%
%TO.N,VCC*%
X140000000Y-63000000D03*
%TD*%
D19*
%TO.N,GND*%
X160000000Y-102000000D03*
X155000000Y-63000000D03*
X93500000Y-105000000D03*
%TO.N,VCC*%
X132500000Y-63000000D03*
X130500000Y-70000000D03*
%TD*%
D20*
%TO.N,VCC*%
X133500000Y-101000000D02*
X131500000Y-103000000D01*
X148000000Y-70000000D02*
X148580000Y-70000000D01*
X164000000Y-72000000D02*
X164000000Y-73920000D01*
X169000000Y-95500000D02*
X167080000Y-95500000D01*
X108500000Y-84500000D02*
X119000000Y-74000000D01*
X119250000Y-72090000D02*
X117660000Y-70500000D01*
X170000000Y-88000000D02*
X170000000Y-88080000D01*
X134500000Y-70000000D02*
X148000000Y-70000000D01*
X168000000Y-66000000D02*
X170420000Y-66000000D01*
X123000000Y-70000000D02*
X130500000Y-70000000D01*
X170000000Y-88000000D02*
X170000000Y-94500000D01*
X148000000Y-70000000D02*
X162000000Y-70000000D01*
X162000000Y-70000000D02*
X164000000Y-72000000D01*
X134500000Y-70000000D02*
X134580000Y-70000000D01*
X122910000Y-72750000D02*
X124000000Y-73840000D01*
X170000000Y-94500000D02*
X169000000Y-95500000D01*
X113000000Y-104000000D02*
X108500000Y-99500000D01*
X110000000Y-91000000D02*
X120920000Y-91000000D01*
X110000000Y-95500000D02*
X120920000Y-95500000D01*
X119250000Y-73750000D02*
X119250000Y-72090000D01*
X122000000Y-69000000D02*
X119500000Y-66500000D01*
X122000000Y-71000000D02*
X122000000Y-69000000D01*
X164000000Y-70000000D02*
X168000000Y-66000000D01*
X120250000Y-72750000D02*
X122910000Y-72750000D01*
X138920000Y-101000000D02*
X133500000Y-101000000D01*
X108500000Y-97000000D02*
X110000000Y-95500000D01*
X108500000Y-92500000D02*
X110000000Y-91000000D01*
X148580000Y-70000000D02*
X151000000Y-72420000D01*
X170000000Y-88080000D02*
X167080000Y-91000000D01*
X122000000Y-71000000D02*
X123000000Y-70000000D01*
X108500000Y-99500000D02*
X108500000Y-97000000D01*
X134580000Y-70000000D02*
X137000000Y-72420000D01*
X120250000Y-72750000D02*
X121000000Y-72000000D01*
X119500000Y-66500000D02*
X117580000Y-66500000D01*
X119000000Y-74000000D02*
X120250000Y-72750000D01*
X162000000Y-70000000D02*
X164000000Y-70000000D01*
X122000000Y-103000000D02*
X121500000Y-103000000D01*
X170000000Y-75000000D02*
X170000000Y-88000000D01*
X120500000Y-104000000D02*
X113000000Y-104000000D01*
X108500000Y-97000000D02*
X108500000Y-92500000D01*
X119000000Y-74000000D02*
X119250000Y-73750000D01*
X121000000Y-72000000D02*
X122000000Y-71000000D01*
X140000000Y-63000000D02*
X132500000Y-63000000D01*
X131500000Y-103000000D02*
X122000000Y-103000000D01*
X164000000Y-70000000D02*
X165000000Y-70000000D01*
X165000000Y-70000000D02*
X170420000Y-70000000D01*
X165000000Y-70000000D02*
X170000000Y-75000000D01*
X108500000Y-92500000D02*
X108500000Y-84500000D01*
X130500000Y-70000000D02*
X134500000Y-70000000D01*
X121500000Y-103000000D02*
X120500000Y-104000000D01*
D21*
%TO.N,Net-(J2-Pin_2)*%
X94500000Y-101800000D02*
X94500000Y-64200000D01*
X126000000Y-62500000D02*
X129000000Y-65500000D01*
X94500000Y-64200000D02*
X96200000Y-62500000D01*
X141500000Y-65500000D02*
X142540000Y-64460000D01*
X96200000Y-62500000D02*
X126000000Y-62500000D01*
X136460000Y-106000000D02*
X98700000Y-106000000D01*
X98700000Y-106000000D02*
X94500000Y-101800000D01*
X138920000Y-103540000D02*
X136460000Y-106000000D01*
X129000000Y-65500000D02*
X141500000Y-65500000D01*
X142540000Y-64460000D02*
X142540000Y-63000000D01*
%TO.N,Net-(J2-Pin_4)*%
X121200000Y-60800000D02*
X144300000Y-60800000D01*
X144300000Y-60800000D02*
X145080000Y-61580000D01*
X145080000Y-61580000D02*
X145080000Y-63000000D01*
X98368629Y-106800000D02*
X93700000Y-102131371D01*
X141460000Y-103540000D02*
X138200000Y-106800000D01*
X96068629Y-61500000D02*
X120500000Y-61500000D01*
X138200000Y-106800000D02*
X98368629Y-106800000D01*
X93700000Y-102131371D02*
X93700000Y-63868629D01*
X93700000Y-63868629D02*
X96068629Y-61500000D01*
X120500000Y-61500000D02*
X121200000Y-60800000D01*
%TO.N,/AN2*%
X146500000Y-87500000D02*
X160580000Y-87500000D01*
X158920000Y-79000000D02*
X158800000Y-79000000D01*
X160580000Y-87500000D02*
X164000000Y-84080000D01*
X144500000Y-89500000D02*
X146500000Y-87500000D01*
X144500000Y-98000000D02*
X144500000Y-89500000D01*
X146540000Y-100040000D02*
X144500000Y-98000000D01*
X146540000Y-101000000D02*
X146540000Y-100040000D01*
%TO.N,/D1*%
X177500000Y-100000000D02*
X177500000Y-73080000D01*
X177500000Y-73080000D02*
X180580000Y-70000000D01*
X146540000Y-105540000D02*
X147000000Y-106000000D01*
X147000000Y-106000000D02*
X171500000Y-106000000D01*
X171500000Y-106000000D02*
X177500000Y-100000000D01*
X146540000Y-103540000D02*
X146540000Y-105540000D01*
%TO.N,/D0*%
X144000000Y-105024924D02*
X145775076Y-106800000D01*
X185000000Y-106800000D02*
X193500000Y-98300000D01*
X96300000Y-74000000D02*
X106500000Y-74000000D01*
X125868629Y-63500000D02*
X96500000Y-63500000D01*
X145775076Y-106800000D02*
X185000000Y-106800000D01*
X144000000Y-103540000D02*
X144000000Y-105024924D01*
X193500000Y-64000000D02*
X191500000Y-62000000D01*
X95300000Y-73000000D02*
X96300000Y-74000000D01*
X106500000Y-74000000D02*
X107500000Y-73000000D01*
X193500000Y-98300000D02*
X193500000Y-64000000D01*
X107500000Y-73000000D02*
X107500000Y-70500000D01*
X128668629Y-66300000D02*
X125868629Y-63500000D01*
X191500000Y-62000000D02*
X165000000Y-62000000D01*
X95300000Y-64700000D02*
X95300000Y-73000000D01*
X96500000Y-63500000D02*
X95300000Y-64700000D01*
X165000000Y-62000000D02*
X160700000Y-66300000D01*
X160700000Y-66300000D02*
X128668629Y-66300000D01*
%TO.N,/AN1*%
X144000000Y-99000000D02*
X143000000Y-98000000D01*
X143000000Y-88580000D02*
X137000000Y-82580000D01*
X144000000Y-101000000D02*
X144000000Y-99000000D01*
X143000000Y-98000000D02*
X143000000Y-88580000D01*
%TD*%
%TA.AperFunction,Conductor*%
%TO.N,GND*%
G36*
X95853368Y-60620185D02*
G01*
X95899123Y-60672989D01*
X95909067Y-60742147D01*
X95880042Y-60805703D01*
X95833782Y-60839061D01*
X95736819Y-60879224D01*
X95622083Y-60955887D01*
X93155887Y-63422083D01*
X93079222Y-63536821D01*
X93026421Y-63664296D01*
X93026418Y-63664308D01*
X93007484Y-63759498D01*
X93007484Y-63759501D01*
X93000288Y-63795677D01*
X92999500Y-63799636D01*
X92999500Y-102062377D01*
X92999500Y-102200365D01*
X92999500Y-102200367D01*
X92999499Y-102200367D01*
X93026418Y-102335693D01*
X93026421Y-102335703D01*
X93079222Y-102463178D01*
X93155887Y-102577916D01*
X93155888Y-102577917D01*
X97765792Y-107187819D01*
X97799277Y-107249142D01*
X97794293Y-107318834D01*
X97752421Y-107374767D01*
X97686957Y-107399184D01*
X97678111Y-107399500D01*
X90724500Y-107399500D01*
X90657461Y-107379815D01*
X90611706Y-107327011D01*
X90600500Y-107275500D01*
X90600500Y-60724500D01*
X90620185Y-60657461D01*
X90672989Y-60611706D01*
X90724500Y-60600500D01*
X95786329Y-60600500D01*
X95853368Y-60620185D01*
G37*
%TD.AperFunction*%
%TA.AperFunction,Conductor*%
G36*
X197342539Y-60620185D02*
G01*
X197388294Y-60672989D01*
X197399500Y-60724500D01*
X197399500Y-107275500D01*
X197379815Y-107342539D01*
X197327011Y-107388294D01*
X197275500Y-107399500D01*
X185690520Y-107399500D01*
X185623481Y-107379815D01*
X185577726Y-107327011D01*
X185567782Y-107257853D01*
X185596807Y-107194297D01*
X185602839Y-107187819D01*
X194044111Y-98746546D01*
X194044112Y-98746545D01*
X194044114Y-98746543D01*
X194120775Y-98631811D01*
X194173580Y-98504329D01*
X194179300Y-98475566D01*
X194185074Y-98446545D01*
X194185074Y-98446542D01*
X194200500Y-98368993D01*
X194200500Y-63931007D01*
X194200500Y-63931004D01*
X194173581Y-63795677D01*
X194173580Y-63795676D01*
X194173580Y-63795672D01*
X194158596Y-63759498D01*
X194120777Y-63668193D01*
X194120772Y-63668184D01*
X194112554Y-63655885D01*
X194112553Y-63655884D01*
X194044112Y-63553454D01*
X191946546Y-61455888D01*
X191831807Y-61379222D01*
X191704332Y-61326421D01*
X191704322Y-61326418D01*
X191568996Y-61299500D01*
X191568994Y-61299500D01*
X191568993Y-61299500D01*
X164931007Y-61299500D01*
X164931003Y-61299500D01*
X164822590Y-61321065D01*
X164822589Y-61321065D01*
X164809131Y-61323742D01*
X164795673Y-61326419D01*
X164758330Y-61341887D01*
X164668190Y-61379224D01*
X164668186Y-61379226D01*
X164553462Y-61455882D01*
X164553459Y-61455884D01*
X164553457Y-61455887D01*
X160446162Y-65563181D01*
X160384839Y-65596666D01*
X160358481Y-65599500D01*
X142690519Y-65599500D01*
X142623480Y-65579815D01*
X142577725Y-65527011D01*
X142567781Y-65457853D01*
X142596806Y-65394297D01*
X142602838Y-65387819D01*
X143084112Y-64906545D01*
X143084114Y-64906543D01*
X143160775Y-64791811D01*
X143213580Y-64664328D01*
X143240500Y-64528994D01*
X143240500Y-64400931D01*
X143260185Y-64333892D01*
X143305483Y-64291876D01*
X143363509Y-64260474D01*
X143559744Y-64107738D01*
X143718771Y-63934988D01*
X143778657Y-63898999D01*
X143848495Y-63901099D01*
X143901228Y-63934988D01*
X144060256Y-64107738D01*
X144256491Y-64260474D01*
X144475190Y-64378828D01*
X144710386Y-64459571D01*
X144955665Y-64500500D01*
X145204335Y-64500500D01*
X145449614Y-64459571D01*
X145684810Y-64378828D01*
X145903509Y-64260474D01*
X145987201Y-64195333D01*
X146052192Y-64169692D01*
X146120732Y-64183258D01*
X146171057Y-64231726D01*
X146172290Y-64234361D01*
X146172396Y-64234304D01*
X146176649Y-64242093D01*
X146262809Y-64357187D01*
X146262812Y-64357190D01*
X146377906Y-64443350D01*
X146377913Y-64443354D01*
X146512620Y-64493596D01*
X146512627Y-64493598D01*
X146572155Y-64499999D01*
X146572172Y-64500000D01*
X147370000Y-64500000D01*
X147370000Y-63315686D01*
X147374394Y-63320080D01*
X147465606Y-63372741D01*
X147567339Y-63400000D01*
X147672661Y-63400000D01*
X147774394Y-63372741D01*
X147865606Y-63320080D01*
X147870000Y-63315686D01*
X147870000Y-64500000D01*
X148667828Y-64500000D01*
X148667844Y-64499999D01*
X148727372Y-64493598D01*
X148727379Y-64493596D01*
X148862086Y-64443354D01*
X148862093Y-64443350D01*
X148977187Y-64357190D01*
X148977190Y-64357187D01*
X149063350Y-64242093D01*
X149063354Y-64242086D01*
X149113596Y-64107379D01*
X149113598Y-64107372D01*
X149119999Y-64047844D01*
X149120000Y-64047827D01*
X149120000Y-63250000D01*
X147935686Y-63250000D01*
X147940080Y-63245606D01*
X147992741Y-63154394D01*
X148020000Y-63052661D01*
X148020000Y-62947339D01*
X147992741Y-62845606D01*
X147940080Y-62754394D01*
X147935686Y-62750000D01*
X149120000Y-62750000D01*
X149120000Y-61952172D01*
X149119999Y-61952155D01*
X149113598Y-61892627D01*
X149113596Y-61892620D01*
X149063354Y-61757913D01*
X149063350Y-61757906D01*
X148977190Y-61642812D01*
X148977187Y-61642809D01*
X148862093Y-61556649D01*
X148862086Y-61556645D01*
X148727379Y-61506403D01*
X148727372Y-61506401D01*
X148667844Y-61500000D01*
X147870000Y-61500000D01*
X147870000Y-62684314D01*
X147865606Y-62679920D01*
X147774394Y-62627259D01*
X147672661Y-62600000D01*
X147567339Y-62600000D01*
X147465606Y-62627259D01*
X147374394Y-62679920D01*
X147370000Y-62684314D01*
X147370000Y-61500000D01*
X146572155Y-61500000D01*
X146512627Y-61506401D01*
X146512620Y-61506403D01*
X146377913Y-61556645D01*
X146377906Y-61556649D01*
X146262812Y-61642809D01*
X146262809Y-61642812D01*
X146176649Y-61757906D01*
X146172396Y-61765696D01*
X146169217Y-61763960D01*
X146137596Y-61806135D01*
X146072113Y-61830502D01*
X146003851Y-61815598D01*
X145987199Y-61804665D01*
X145980563Y-61799500D01*
X145903509Y-61739526D01*
X145845481Y-61708122D01*
X145795891Y-61658904D01*
X145780500Y-61599069D01*
X145780500Y-61511004D01*
X145753581Y-61375677D01*
X145753580Y-61375676D01*
X145753580Y-61375672D01*
X145739586Y-61341887D01*
X145700776Y-61248191D01*
X145700775Y-61248189D01*
X145647321Y-61168189D01*
X145624114Y-61133457D01*
X145624112Y-61133455D01*
X145624110Y-61133452D01*
X145302838Y-60812181D01*
X145269353Y-60750858D01*
X145274337Y-60681167D01*
X145316208Y-60625233D01*
X145381673Y-60600816D01*
X145390519Y-60600500D01*
X197275500Y-60600500D01*
X197342539Y-60620185D01*
G37*
%TD.AperFunction*%
%TA.AperFunction,Conductor*%
G36*
X139000000Y-93052661D02*
G01*
X139027259Y-93154394D01*
X139079920Y-93245606D01*
X139154394Y-93320080D01*
X139245606Y-93372741D01*
X139347339Y-93400000D01*
X139353553Y-93400000D01*
X138503308Y-94250243D01*
X138496200Y-94292203D01*
X138465261Y-94332177D01*
X138317973Y-94457973D01*
X138162025Y-94640563D01*
X138162024Y-94640566D01*
X138105434Y-94732913D01*
X138053622Y-94779788D01*
X137984693Y-94791211D01*
X137920530Y-94763554D01*
X137893980Y-94732913D01*
X137837568Y-94640857D01*
X137837564Y-94640852D01*
X137763289Y-94553888D01*
X137734718Y-94490127D01*
X137745155Y-94421041D01*
X137791286Y-94368565D01*
X137791291Y-94368561D01*
X137819885Y-94350595D01*
X137950595Y-94219885D01*
X138048942Y-94063367D01*
X138078709Y-93978296D01*
X138119429Y-93921521D01*
X138128536Y-93917910D01*
X139000000Y-93046446D01*
X139000000Y-93052661D01*
G37*
%TD.AperFunction*%
%TA.AperFunction,Conductor*%
G36*
X150950000Y-93052661D02*
G01*
X150977259Y-93154394D01*
X151029920Y-93245606D01*
X151104394Y-93320080D01*
X151195606Y-93372741D01*
X151297339Y-93400000D01*
X151303553Y-93400000D01*
X150453308Y-94250243D01*
X150446200Y-94292203D01*
X150415261Y-94332177D01*
X150267973Y-94457973D01*
X150112025Y-94640563D01*
X150112024Y-94640566D01*
X150055434Y-94732913D01*
X150003622Y-94779788D01*
X149934693Y-94791211D01*
X149870530Y-94763554D01*
X149843980Y-94732913D01*
X149787568Y-94640857D01*
X149787564Y-94640852D01*
X149713289Y-94553888D01*
X149684718Y-94490127D01*
X149695155Y-94421041D01*
X149741286Y-94368565D01*
X149741291Y-94368561D01*
X149769885Y-94350595D01*
X149900595Y-94219885D01*
X149998942Y-94063367D01*
X150028709Y-93978296D01*
X150069429Y-93921521D01*
X150078536Y-93917910D01*
X150950000Y-93046446D01*
X150950000Y-93052661D01*
G37*
%TD.AperFunction*%
%TA.AperFunction,Conductor*%
G36*
X158400000Y-76512661D02*
G01*
X158427259Y-76614394D01*
X158479920Y-76705606D01*
X158554394Y-76780080D01*
X158645606Y-76832741D01*
X158747339Y-76860000D01*
X158753553Y-76860000D01*
X157903308Y-77710243D01*
X157896200Y-77752203D01*
X157865261Y-77792177D01*
X157717973Y-77917973D01*
X157562025Y-78100563D01*
X157562024Y-78100566D01*
X157505434Y-78192913D01*
X157453622Y-78239788D01*
X157384693Y-78251211D01*
X157320530Y-78223554D01*
X157293980Y-78192913D01*
X157237568Y-78100857D01*
X157237564Y-78100852D01*
X157163289Y-78013888D01*
X157134718Y-77950127D01*
X157145155Y-77881041D01*
X157191286Y-77828565D01*
X157191291Y-77828561D01*
X157219885Y-77810595D01*
X157350595Y-77679885D01*
X157448942Y-77523367D01*
X157478709Y-77438296D01*
X157519429Y-77381521D01*
X157528536Y-77377910D01*
X158400000Y-76506446D01*
X158400000Y-76512661D01*
G37*
%TD.AperFunction*%
%TA.AperFunction,Conductor*%
G36*
X131400000Y-76472661D02*
G01*
X131427259Y-76574394D01*
X131479920Y-76665606D01*
X131554394Y-76740080D01*
X131645606Y-76792741D01*
X131747339Y-76820000D01*
X131753553Y-76820000D01*
X130903308Y-77670243D01*
X130896200Y-77712203D01*
X130865261Y-77752177D01*
X130717973Y-77877973D01*
X130562025Y-78060563D01*
X130562024Y-78060566D01*
X130505434Y-78152913D01*
X130453622Y-78199788D01*
X130384693Y-78211211D01*
X130320530Y-78183554D01*
X130293980Y-78152913D01*
X130237568Y-78060857D01*
X130237564Y-78060852D01*
X130163289Y-77973888D01*
X130134718Y-77910127D01*
X130145155Y-77841041D01*
X130191286Y-77788565D01*
X130191291Y-77788561D01*
X130219885Y-77770595D01*
X130350595Y-77639885D01*
X130448942Y-77483367D01*
X130478709Y-77398296D01*
X130519429Y-77341521D01*
X130528536Y-77337910D01*
X131400000Y-76466446D01*
X131400000Y-76472661D01*
G37*
%TD.AperFunction*%
%TA.AperFunction,Conductor*%
G36*
X101078958Y-67845156D02*
G01*
X101131434Y-67891287D01*
X101131636Y-67891607D01*
X101149403Y-67919882D01*
X101149405Y-67919885D01*
X101280115Y-68050595D01*
X101436633Y-68148942D01*
X101521701Y-68178708D01*
X101578477Y-68219430D01*
X101582085Y-68228533D01*
X102453553Y-69100000D01*
X102447339Y-69100000D01*
X102345606Y-69127259D01*
X102254394Y-69179920D01*
X102179920Y-69254394D01*
X102127259Y-69345606D01*
X102100000Y-69447339D01*
X102100000Y-69453553D01*
X101249754Y-68603307D01*
X101207797Y-68596200D01*
X101167823Y-68565261D01*
X101129875Y-68520830D01*
X101042027Y-68417973D01*
X100859439Y-68262028D01*
X100813159Y-68233668D01*
X100767087Y-68205435D01*
X100720211Y-68153623D01*
X100708788Y-68084693D01*
X100736445Y-68020530D01*
X100767086Y-67993979D01*
X100859149Y-67937562D01*
X100946111Y-67863290D01*
X101009872Y-67834719D01*
X101078958Y-67845156D01*
G37*
%TD.AperFunction*%
%TA.AperFunction,Conductor*%
G36*
X188900000Y-67012661D02*
G01*
X188927259Y-67114394D01*
X188979920Y-67205606D01*
X189054394Y-67280080D01*
X189145606Y-67332741D01*
X189247339Y-67360000D01*
X189253553Y-67360000D01*
X188403308Y-68210243D01*
X188396200Y-68252203D01*
X188365261Y-68292177D01*
X188217973Y-68417973D01*
X188062025Y-68600563D01*
X188062024Y-68600566D01*
X188005434Y-68692913D01*
X187953622Y-68739788D01*
X187884693Y-68751211D01*
X187820530Y-68723554D01*
X187793980Y-68692913D01*
X187737568Y-68600857D01*
X187737564Y-68600852D01*
X187663289Y-68513888D01*
X187634718Y-68450127D01*
X187645155Y-68381041D01*
X187691286Y-68328565D01*
X187691291Y-68328561D01*
X187719885Y-68310595D01*
X187850595Y-68179885D01*
X187948942Y-68023367D01*
X187978709Y-67938296D01*
X188019429Y-67881521D01*
X188028536Y-67877910D01*
X188900000Y-67006446D01*
X188900000Y-67012661D01*
G37*
%TD.AperFunction*%
%TA.AperFunction,Conductor*%
G36*
X191225520Y-62720185D02*
G01*
X191246162Y-62736819D01*
X192763181Y-64253838D01*
X192796666Y-64315161D01*
X192799500Y-64341519D01*
X192799500Y-97958481D01*
X192779815Y-98025520D01*
X192763181Y-98046162D01*
X184746162Y-106063181D01*
X184684839Y-106096666D01*
X184658481Y-106099500D01*
X172690519Y-106099500D01*
X172623480Y-106079815D01*
X172577725Y-106027011D01*
X172567781Y-105957853D01*
X172596806Y-105894297D01*
X172602838Y-105887819D01*
X178044107Y-100446550D01*
X178044109Y-100446546D01*
X178044113Y-100446543D01*
X178100458Y-100362218D01*
X178120775Y-100331811D01*
X178157011Y-100244329D01*
X178173580Y-100204329D01*
X178192543Y-100108994D01*
X178200500Y-100068993D01*
X178200500Y-98378711D01*
X182149500Y-98378711D01*
X182149500Y-98621288D01*
X182181161Y-98861785D01*
X182243947Y-99096104D01*
X182318624Y-99276389D01*
X182336776Y-99320212D01*
X182458064Y-99530289D01*
X182458066Y-99530292D01*
X182458067Y-99530293D01*
X182605733Y-99722736D01*
X182605739Y-99722743D01*
X182777256Y-99894260D01*
X182777263Y-99894266D01*
X182890321Y-99981018D01*
X182969711Y-100041936D01*
X183179788Y-100163224D01*
X183325571Y-100223609D01*
X183394764Y-100252270D01*
X183403900Y-100256054D01*
X183638211Y-100318838D01*
X183818586Y-100342584D01*
X183878711Y-100350500D01*
X183878712Y-100350500D01*
X184121289Y-100350500D01*
X184169388Y-100344167D01*
X184361789Y-100318838D01*
X184596100Y-100256054D01*
X184820212Y-100163224D01*
X185030289Y-100041936D01*
X185222738Y-99894265D01*
X185394265Y-99722738D01*
X185541936Y-99530289D01*
X185663224Y-99320212D01*
X185756054Y-99096100D01*
X185818838Y-98861789D01*
X185850500Y-98621288D01*
X185850500Y-98378712D01*
X185849220Y-98368993D01*
X185827542Y-98204328D01*
X185818838Y-98138211D01*
X185756054Y-97903900D01*
X185663224Y-97679788D01*
X185541936Y-97469711D01*
X185394265Y-97277262D01*
X185394260Y-97277256D01*
X185222743Y-97105739D01*
X185222736Y-97105733D01*
X185030293Y-96958067D01*
X185030292Y-96958066D01*
X185030289Y-96958064D01*
X184820212Y-96836776D01*
X184820205Y-96836773D01*
X184596104Y-96743947D01*
X184361785Y-96681161D01*
X184121289Y-96649500D01*
X184121288Y-96649500D01*
X183878712Y-96649500D01*
X183878711Y-96649500D01*
X183638214Y-96681161D01*
X183403895Y-96743947D01*
X183179794Y-96836773D01*
X183179785Y-96836777D01*
X182969706Y-96958067D01*
X182777263Y-97105733D01*
X182777256Y-97105739D01*
X182605739Y-97277256D01*
X182605733Y-97277263D01*
X182458067Y-97469706D01*
X182336777Y-97679785D01*
X182336773Y-97679794D01*
X182243947Y-97903895D01*
X182181161Y-98138214D01*
X182149500Y-98378711D01*
X178200500Y-98378711D01*
X178200500Y-88378711D01*
X182149500Y-88378711D01*
X182149500Y-88378712D01*
X182149500Y-88621288D01*
X182181162Y-88861789D01*
X182212554Y-88978944D01*
X182243947Y-89096104D01*
X182265981Y-89149298D01*
X182336776Y-89320212D01*
X182458064Y-89530289D01*
X182458066Y-89530292D01*
X182458067Y-89530293D01*
X182605733Y-89722736D01*
X182605739Y-89722743D01*
X182777256Y-89894260D01*
X182777262Y-89894265D01*
X182969711Y-90041936D01*
X183179788Y-90163224D01*
X183403900Y-90256054D01*
X183638211Y-90318838D01*
X183818586Y-90342584D01*
X183878711Y-90350500D01*
X183878712Y-90350500D01*
X184121289Y-90350500D01*
X184169388Y-90344167D01*
X184361789Y-90318838D01*
X184596100Y-90256054D01*
X184820212Y-90163224D01*
X185030289Y-90041936D01*
X185222738Y-89894265D01*
X185394265Y-89722738D01*
X185541936Y-89530289D01*
X185663224Y-89320212D01*
X185756054Y-89096100D01*
X185818838Y-88861789D01*
X185850500Y-88621288D01*
X185850500Y-88378712D01*
X185850100Y-88375677D01*
X185833317Y-88248195D01*
X185818838Y-88138211D01*
X185756054Y-87903900D01*
X185663224Y-87679788D01*
X185541936Y-87469711D01*
X185394265Y-87277262D01*
X185394260Y-87277256D01*
X185222743Y-87105739D01*
X185222736Y-87105733D01*
X185030293Y-86958067D01*
X185030292Y-86958066D01*
X185030289Y-86958064D01*
X184820212Y-86836776D01*
X184795213Y-86826421D01*
X184596104Y-86743947D01*
X184361785Y-86681161D01*
X184121289Y-86649500D01*
X184121288Y-86649500D01*
X183878712Y-86649500D01*
X183878711Y-86649500D01*
X183638214Y-86681161D01*
X183403895Y-86743947D01*
X183179794Y-86836773D01*
X183179785Y-86836777D01*
X182997851Y-86941817D01*
X182973484Y-86955886D01*
X182969706Y-86958067D01*
X182777263Y-87105733D01*
X182777256Y-87105739D01*
X182605739Y-87277256D01*
X182605733Y-87277263D01*
X182458067Y-87469706D01*
X182336777Y-87679785D01*
X182336773Y-87679794D01*
X182243947Y-87903895D01*
X182181161Y-88138214D01*
X182149500Y-88378711D01*
X178200500Y-88378711D01*
X178200500Y-78378711D01*
X182149500Y-78378711D01*
X182149500Y-78621288D01*
X182181161Y-78861785D01*
X182243947Y-79096104D01*
X182303259Y-79239295D01*
X182336776Y-79320212D01*
X182458064Y-79530289D01*
X182458066Y-79530292D01*
X182458067Y-79530293D01*
X182605733Y-79722736D01*
X182605739Y-79722743D01*
X182777256Y-79894260D01*
X182777262Y-79894265D01*
X182969711Y-80041936D01*
X183179788Y-80163224D01*
X183403900Y-80256054D01*
X183638211Y-80318838D01*
X183818586Y-80342584D01*
X183878711Y-80350500D01*
X183878712Y-80350500D01*
X184121289Y-80350500D01*
X184169388Y-80344167D01*
X184361789Y-80318838D01*
X184596100Y-80256054D01*
X184820212Y-80163224D01*
X185030289Y-80041936D01*
X185222738Y-79894265D01*
X185394265Y-79722738D01*
X185541936Y-79530289D01*
X185663224Y-79320212D01*
X185756054Y-79096100D01*
X185818838Y-78861789D01*
X185850500Y-78621288D01*
X185850500Y-78378712D01*
X185818838Y-78138211D01*
X185756054Y-77903900D01*
X185663224Y-77679788D01*
X185541936Y-77469711D01*
X185394265Y-77277262D01*
X185394260Y-77277256D01*
X185222743Y-77105739D01*
X185222736Y-77105733D01*
X185030293Y-76958067D01*
X185030292Y-76958066D01*
X185030289Y-76958064D01*
X184820212Y-76836776D01*
X184810471Y-76832741D01*
X184596104Y-76743947D01*
X184361785Y-76681161D01*
X184121289Y-76649500D01*
X184121288Y-76649500D01*
X183878712Y-76649500D01*
X183878711Y-76649500D01*
X183638214Y-76681161D01*
X183403895Y-76743947D01*
X183179794Y-76836773D01*
X183179785Y-76836777D01*
X182969706Y-76958067D01*
X182777263Y-77105733D01*
X182777256Y-77105739D01*
X182605739Y-77277256D01*
X182605733Y-77277263D01*
X182458067Y-77469706D01*
X182458064Y-77469710D01*
X182458064Y-77469711D01*
X182450180Y-77483366D01*
X182336777Y-77679785D01*
X182336773Y-77679794D01*
X182243947Y-77903895D01*
X182181161Y-78138214D01*
X182149500Y-78378711D01*
X178200500Y-78378711D01*
X178200500Y-73421518D01*
X178220185Y-73354479D01*
X178236814Y-73333842D01*
X180043912Y-71526743D01*
X180105233Y-71493260D01*
X180160533Y-71493851D01*
X180336698Y-71536146D01*
X180580000Y-71555294D01*
X180823302Y-71536146D01*
X181060612Y-71479172D01*
X181286089Y-71385777D01*
X181494179Y-71258259D01*
X181679759Y-71099759D01*
X181838259Y-70914179D01*
X181965777Y-70706089D01*
X182059172Y-70480612D01*
X182116146Y-70243302D01*
X182135294Y-70000000D01*
X182116146Y-69756698D01*
X182059172Y-69519388D01*
X182051142Y-69500001D01*
X182051142Y-69500000D01*
X184970284Y-69500000D01*
X184989116Y-69739295D01*
X185045155Y-69972711D01*
X185045158Y-69972719D01*
X185137010Y-70194473D01*
X185137012Y-70194476D01*
X185256684Y-70389762D01*
X186100000Y-69546446D01*
X186100000Y-69552661D01*
X186127259Y-69654394D01*
X186179920Y-69745606D01*
X186254394Y-69820080D01*
X186345606Y-69872741D01*
X186447339Y-69900000D01*
X186453553Y-69900000D01*
X185610236Y-70743314D01*
X185805523Y-70862987D01*
X185805526Y-70862989D01*
X186027280Y-70954841D01*
X186027288Y-70954844D01*
X186260704Y-71010883D01*
X186500000Y-71029715D01*
X186739295Y-71010883D01*
X186972711Y-70954844D01*
X186972719Y-70954841D01*
X187194473Y-70862989D01*
X187194476Y-70862987D01*
X187389762Y-70743315D01*
X187389762Y-70743314D01*
X186546447Y-69900000D01*
X186552661Y-69900000D01*
X186654394Y-69872741D01*
X186745606Y-69820080D01*
X186820080Y-69745606D01*
X186872741Y-69654394D01*
X186900000Y-69552661D01*
X186900000Y-69546448D01*
X187743314Y-70389762D01*
X187793978Y-70307086D01*
X187845790Y-70260210D01*
X187914720Y-70248787D01*
X187978883Y-70276444D01*
X188005433Y-70307085D01*
X188062024Y-70399434D01*
X188062025Y-70399436D01*
X188092176Y-70434738D01*
X188217973Y-70582027D01*
X188400561Y-70737972D01*
X188409280Y-70743315D01*
X188605297Y-70863434D01*
X188654596Y-70883854D01*
X188827137Y-70955323D01*
X189060621Y-71011377D01*
X189300000Y-71030217D01*
X189539379Y-71011377D01*
X189772863Y-70955323D01*
X189994704Y-70863433D01*
X190199439Y-70737972D01*
X190382027Y-70582027D01*
X190537972Y-70399439D01*
X190663433Y-70194704D01*
X190663528Y-70194476D01*
X190675171Y-70166365D01*
X190755323Y-69972863D01*
X190811377Y-69739379D01*
X190830217Y-69500000D01*
X190811377Y-69260621D01*
X190755323Y-69027137D01*
X190699455Y-68892261D01*
X190663434Y-68805297D01*
X190550602Y-68621172D01*
X190537972Y-68600561D01*
X190382027Y-68417973D01*
X190256304Y-68310595D01*
X190234737Y-68292175D01*
X190196544Y-68233668D01*
X190194278Y-68207831D01*
X189346447Y-67360000D01*
X189352661Y-67360000D01*
X189454394Y-67332741D01*
X189545606Y-67280080D01*
X189620080Y-67205606D01*
X189672741Y-67114394D01*
X189700000Y-67012661D01*
X189700000Y-67006447D01*
X190543314Y-67849762D01*
X190543315Y-67849762D01*
X190662987Y-67654476D01*
X190662989Y-67654473D01*
X190754841Y-67432719D01*
X190754844Y-67432711D01*
X190810883Y-67199295D01*
X190829715Y-66960000D01*
X190810883Y-66720704D01*
X190754844Y-66487288D01*
X190754841Y-66487280D01*
X190662989Y-66265526D01*
X190662987Y-66265523D01*
X190543314Y-66070236D01*
X189700000Y-66913551D01*
X189700000Y-66907339D01*
X189672741Y-66805606D01*
X189620080Y-66714394D01*
X189545606Y-66639920D01*
X189454394Y-66587259D01*
X189352661Y-66560000D01*
X189346448Y-66560000D01*
X190189762Y-65716684D01*
X189994476Y-65597012D01*
X189994473Y-65597010D01*
X189772719Y-65505158D01*
X189772711Y-65505155D01*
X189539295Y-65449116D01*
X189300000Y-65430284D01*
X189060704Y-65449116D01*
X188827288Y-65505155D01*
X188827280Y-65505158D01*
X188605526Y-65597010D01*
X188605523Y-65597012D01*
X188410236Y-65716684D01*
X189253553Y-66560000D01*
X189247339Y-66560000D01*
X189145606Y-66587259D01*
X189054394Y-66639920D01*
X188979920Y-66714394D01*
X188927259Y-66805606D01*
X188900000Y-66907339D01*
X188900000Y-66913552D01*
X188014156Y-66027708D01*
X188014337Y-66027526D01*
X187989787Y-66005151D01*
X187978708Y-65981701D01*
X187948941Y-65896631D01*
X187884397Y-65793910D01*
X187850595Y-65740115D01*
X187719885Y-65609405D01*
X187576624Y-65519388D01*
X187563369Y-65511059D01*
X187563368Y-65511058D01*
X187563367Y-65511058D01*
X187474942Y-65480117D01*
X187388885Y-65450004D01*
X187251275Y-65434500D01*
X185748727Y-65434500D01*
X185748723Y-65434501D01*
X185611113Y-65450005D01*
X185436631Y-65511058D01*
X185280114Y-65609405D01*
X185149405Y-65740114D01*
X185051059Y-65896630D01*
X184990004Y-66071114D01*
X184974500Y-66208722D01*
X184974500Y-67711272D01*
X184974501Y-67711276D01*
X184990005Y-67848886D01*
X184990005Y-67848888D01*
X184990006Y-67848889D01*
X184995045Y-67863290D01*
X185051058Y-68023368D01*
X185149405Y-68179885D01*
X185280117Y-68310597D01*
X185308391Y-68328362D01*
X185354683Y-68380696D01*
X185365332Y-68449749D01*
X185336957Y-68513598D01*
X185336710Y-68513887D01*
X185262440Y-68600845D01*
X185262432Y-68600857D01*
X185137012Y-68805523D01*
X185137010Y-68805526D01*
X185045158Y-69027280D01*
X185045155Y-69027288D01*
X184989116Y-69260704D01*
X184970284Y-69500000D01*
X182051142Y-69500000D01*
X181965777Y-69293910D01*
X181838262Y-69085826D01*
X181838261Y-69085823D01*
X181788136Y-69027134D01*
X181679759Y-68900241D01*
X181505267Y-68751211D01*
X181494176Y-68741738D01*
X181494173Y-68741737D01*
X181286089Y-68614222D01*
X181060618Y-68520830D01*
X181060621Y-68520830D01*
X180954992Y-68495470D01*
X180823302Y-68463854D01*
X180823300Y-68463853D01*
X180823297Y-68463853D01*
X180580000Y-68444706D01*
X180336702Y-68463853D01*
X180099380Y-68520830D01*
X179873910Y-68614222D01*
X179665826Y-68741737D01*
X179665823Y-68741738D01*
X179480241Y-68900241D01*
X179321738Y-69085823D01*
X179321737Y-69085826D01*
X179194222Y-69293910D01*
X179100830Y-69519380D01*
X179043853Y-69756702D01*
X179024706Y-70000000D01*
X179043853Y-70243298D01*
X179086146Y-70419460D01*
X179082655Y-70489242D01*
X179053253Y-70536088D01*
X176955887Y-72633454D01*
X176879222Y-72748192D01*
X176826421Y-72875667D01*
X176826421Y-72875669D01*
X176826420Y-72875672D01*
X176800532Y-73005821D01*
X176800532Y-73005823D01*
X176800531Y-73005827D01*
X176799500Y-73011003D01*
X176799500Y-99658481D01*
X176779815Y-99725520D01*
X176763181Y-99746162D01*
X171246162Y-105263181D01*
X171184839Y-105296666D01*
X171158481Y-105299500D01*
X149438496Y-105299500D01*
X149371457Y-105279815D01*
X149325702Y-105227011D01*
X149315758Y-105157853D01*
X149344783Y-105094297D01*
X149403561Y-105056523D01*
X149409549Y-105054926D01*
X149560457Y-105018696D01*
X149785861Y-104925331D01*
X149987941Y-104801495D01*
X149987941Y-104801494D01*
X149209410Y-104022962D01*
X149272993Y-104005925D01*
X149387007Y-103940099D01*
X149480099Y-103847007D01*
X149545925Y-103732993D01*
X149562962Y-103669409D01*
X150341494Y-104447941D01*
X150341495Y-104447941D01*
X150465331Y-104245861D01*
X150558696Y-104020457D01*
X150615651Y-103783219D01*
X150634792Y-103540000D01*
X150615651Y-103296780D01*
X150558696Y-103059542D01*
X150465331Y-102834138D01*
X150341494Y-102632057D01*
X149562962Y-103410589D01*
X149545925Y-103347007D01*
X149480099Y-103232993D01*
X149387007Y-103139901D01*
X149272993Y-103074075D01*
X149209409Y-103057037D01*
X150010038Y-102256406D01*
X150036731Y-102221915D01*
X150179759Y-102099759D01*
X150338259Y-101914179D01*
X150465777Y-101706089D01*
X150559172Y-101480612D01*
X150616146Y-101243302D01*
X150635294Y-101000000D01*
X150616146Y-100756698D01*
X150559172Y-100519388D01*
X150559169Y-100519380D01*
X150465777Y-100293910D01*
X150338262Y-100085826D01*
X150338261Y-100085823D01*
X150288755Y-100027859D01*
X150179759Y-99900241D01*
X150017354Y-99761534D01*
X149994176Y-99741738D01*
X149994173Y-99741737D01*
X149786089Y-99614222D01*
X149560618Y-99520830D01*
X149560621Y-99520830D01*
X149426862Y-99488717D01*
X149323302Y-99463854D01*
X149323300Y-99463853D01*
X149323297Y-99463853D01*
X149080000Y-99444706D01*
X148836702Y-99463853D01*
X148599380Y-99520830D01*
X148373910Y-99614222D01*
X148165826Y-99741737D01*
X148165823Y-99741738D01*
X147980241Y-99900241D01*
X147904290Y-99989168D01*
X147845783Y-100027361D01*
X147775915Y-100027859D01*
X147716869Y-99990505D01*
X147715710Y-99989168D01*
X147653880Y-99916775D01*
X147639759Y-99900241D01*
X147477354Y-99761534D01*
X147454176Y-99741738D01*
X147454173Y-99741737D01*
X147246088Y-99614222D01*
X147246085Y-99614220D01*
X147027819Y-99523813D01*
X146987590Y-99496933D01*
X145236819Y-97746162D01*
X145203334Y-97684839D01*
X145200500Y-97658481D01*
X145200500Y-95540000D01*
X147020284Y-95540000D01*
X147039116Y-95779295D01*
X147095155Y-96012711D01*
X147095158Y-96012719D01*
X147187010Y-96234473D01*
X147187012Y-96234476D01*
X147306684Y-96429762D01*
X148150000Y-95586446D01*
X148150000Y-95592661D01*
X148177259Y-95694394D01*
X148229920Y-95785606D01*
X148304394Y-95860080D01*
X148395606Y-95912741D01*
X148497339Y-95940000D01*
X148503553Y-95940000D01*
X147660236Y-96783314D01*
X147855523Y-96902987D01*
X147855526Y-96902989D01*
X148077280Y-96994841D01*
X148077288Y-96994844D01*
X148310704Y-97050883D01*
X148550000Y-97069715D01*
X148789295Y-97050883D01*
X149022711Y-96994844D01*
X149022719Y-96994841D01*
X149244473Y-96902989D01*
X149244476Y-96902987D01*
X149439762Y-96783315D01*
X149439762Y-96783314D01*
X148596447Y-95940000D01*
X148602661Y-95940000D01*
X148704394Y-95912741D01*
X148795606Y-95860080D01*
X148870080Y-95785606D01*
X148922741Y-95694394D01*
X148950000Y-95592661D01*
X148950000Y-95586448D01*
X149793314Y-96429762D01*
X149843978Y-96347086D01*
X149895790Y-96300210D01*
X149964720Y-96288787D01*
X150028883Y-96316444D01*
X150055433Y-96347085D01*
X150112024Y-96439434D01*
X150112025Y-96439436D01*
X150112028Y-96439439D01*
X150267973Y-96622027D01*
X150450561Y-96777972D01*
X150459280Y-96783315D01*
X150655297Y-96903434D01*
X150752047Y-96943508D01*
X150877137Y-96995323D01*
X151110621Y-97051377D01*
X151350000Y-97070217D01*
X151589379Y-97051377D01*
X151822863Y-96995323D01*
X152044704Y-96903433D01*
X152249439Y-96777972D01*
X152432027Y-96622027D01*
X152587972Y-96439439D01*
X152713433Y-96234704D01*
X152713528Y-96234476D01*
X152760205Y-96121786D01*
X152805323Y-96012863D01*
X152861377Y-95779379D01*
X152880217Y-95540000D01*
X152877069Y-95500000D01*
X155364706Y-95500000D01*
X155383853Y-95743297D01*
X155383853Y-95743300D01*
X155383854Y-95743302D01*
X155424533Y-95912741D01*
X155440830Y-95980619D01*
X155534222Y-96206089D01*
X155661737Y-96414173D01*
X155661738Y-96414176D01*
X155661741Y-96414179D01*
X155820241Y-96599759D01*
X155915551Y-96681161D01*
X156005823Y-96758261D01*
X156005826Y-96758262D01*
X156213910Y-96885777D01*
X156439381Y-96979169D01*
X156439378Y-96979169D01*
X156439384Y-96979170D01*
X156439388Y-96979172D01*
X156676698Y-97036146D01*
X156920000Y-97055294D01*
X157163302Y-97036146D01*
X157400612Y-96979172D01*
X157626089Y-96885777D01*
X157834179Y-96758259D01*
X158019759Y-96599759D01*
X158178259Y-96414179D01*
X158305777Y-96206089D01*
X158399172Y-95980612D01*
X158456146Y-95743302D01*
X158475294Y-95500000D01*
X158456146Y-95256698D01*
X158399172Y-95019388D01*
X158399169Y-95019380D01*
X158305777Y-94793910D01*
X158178262Y-94585826D01*
X158178261Y-94585823D01*
X158113497Y-94509994D01*
X158019759Y-94400241D01*
X157844134Y-94250243D01*
X157834176Y-94241738D01*
X157834173Y-94241737D01*
X157626089Y-94114222D01*
X157400618Y-94020830D01*
X157400621Y-94020830D01*
X157294992Y-93995470D01*
X157163302Y-93963854D01*
X157163300Y-93963853D01*
X157163297Y-93963853D01*
X156920000Y-93944706D01*
X156676702Y-93963853D01*
X156439380Y-94020830D01*
X156213910Y-94114222D01*
X156005826Y-94241737D01*
X156005823Y-94241738D01*
X155820241Y-94400241D01*
X155661738Y-94585823D01*
X155661737Y-94585826D01*
X155534222Y-94793910D01*
X155440830Y-95019380D01*
X155383853Y-95256702D01*
X155364706Y-95500000D01*
X152877069Y-95500000D01*
X152861377Y-95300621D01*
X152805323Y-95067137D01*
X152734696Y-94896629D01*
X152713434Y-94845297D01*
X152587973Y-94640563D01*
X152587972Y-94640561D01*
X152432027Y-94457973D01*
X152306304Y-94350595D01*
X152284737Y-94332175D01*
X152246544Y-94273668D01*
X152244278Y-94247831D01*
X151396447Y-93400000D01*
X151402661Y-93400000D01*
X151504394Y-93372741D01*
X151595606Y-93320080D01*
X151670080Y-93245606D01*
X151722741Y-93154394D01*
X151750000Y-93052661D01*
X151750000Y-93046447D01*
X152593314Y-93889762D01*
X152593315Y-93889762D01*
X152712987Y-93694476D01*
X152712989Y-93694473D01*
X152804841Y-93472719D01*
X152804844Y-93472711D01*
X152860883Y-93239295D01*
X152879715Y-93000000D01*
X152860883Y-92760704D01*
X152804844Y-92527288D01*
X152804841Y-92527280D01*
X152712989Y-92305526D01*
X152712987Y-92305523D01*
X152593314Y-92110236D01*
X151750000Y-92953551D01*
X151750000Y-92947339D01*
X151722741Y-92845606D01*
X151670080Y-92754394D01*
X151595606Y-92679920D01*
X151504394Y-92627259D01*
X151402661Y-92600000D01*
X151396448Y-92600000D01*
X152239762Y-91756684D01*
X152044476Y-91637012D01*
X152044473Y-91637010D01*
X151822719Y-91545158D01*
X151822711Y-91545155D01*
X151589295Y-91489116D01*
X151350000Y-91470284D01*
X151110704Y-91489116D01*
X150877288Y-91545155D01*
X150877280Y-91545158D01*
X150655526Y-91637010D01*
X150655523Y-91637012D01*
X150460236Y-91756684D01*
X151303553Y-92600000D01*
X151297339Y-92600000D01*
X151195606Y-92627259D01*
X151104394Y-92679920D01*
X151029920Y-92754394D01*
X150977259Y-92845606D01*
X150950000Y-92947339D01*
X150950000Y-92953552D01*
X150064156Y-92067708D01*
X150064337Y-92067526D01*
X150039787Y-92045151D01*
X150028708Y-92021701D01*
X149998941Y-91936631D01*
X149950608Y-91859710D01*
X149900595Y-91780115D01*
X149769885Y-91649405D01*
X149613367Y-91551058D01*
X149555207Y-91530707D01*
X149438885Y-91490004D01*
X149301275Y-91474500D01*
X147798727Y-91474500D01*
X147798723Y-91474501D01*
X147661113Y-91490005D01*
X147486631Y-91551058D01*
X147330114Y-91649405D01*
X147199405Y-91780114D01*
X147101059Y-91936630D01*
X147040004Y-92111114D01*
X147024500Y-92248722D01*
X147024500Y-93751272D01*
X147024501Y-93751276D01*
X147040005Y-93888886D01*
X147040005Y-93888888D01*
X147040006Y-93888889D01*
X147047603Y-93910600D01*
X147101058Y-94063368D01*
X147199405Y-94219885D01*
X147330117Y-94350597D01*
X147358391Y-94368362D01*
X147404683Y-94420696D01*
X147415332Y-94489749D01*
X147386957Y-94553598D01*
X147386710Y-94553887D01*
X147312440Y-94640845D01*
X147312432Y-94640857D01*
X147187012Y-94845523D01*
X147187010Y-94845526D01*
X147095158Y-95067280D01*
X147095155Y-95067288D01*
X147039116Y-95300704D01*
X147020284Y-95540000D01*
X145200500Y-95540000D01*
X145200500Y-91000000D01*
X155364706Y-91000000D01*
X155383853Y-91243297D01*
X155383853Y-91243300D01*
X155383854Y-91243302D01*
X155438348Y-91470284D01*
X155440830Y-91480619D01*
X155534222Y-91706089D01*
X155661737Y-91914173D01*
X155661738Y-91914176D01*
X155661741Y-91914179D01*
X155820241Y-92099759D01*
X155963897Y-92222453D01*
X156005823Y-92258261D01*
X156005826Y-92258262D01*
X156213910Y-92385777D01*
X156439381Y-92479169D01*
X156439378Y-92479169D01*
X156439384Y-92479170D01*
X156439388Y-92479172D01*
X156676698Y-92536146D01*
X156920000Y-92555294D01*
X157163302Y-92536146D01*
X157400612Y-92479172D01*
X157626089Y-92385777D01*
X157834179Y-92258259D01*
X158019759Y-92099759D01*
X158178259Y-91914179D01*
X158305777Y-91706089D01*
X158399172Y-91480612D01*
X158456146Y-91243302D01*
X158475294Y-91000000D01*
X158456146Y-90756698D01*
X158399172Y-90519388D01*
X158348324Y-90396629D01*
X158305777Y-90293910D01*
X158178262Y-90085826D01*
X158178261Y-90085823D01*
X158140774Y-90041932D01*
X158019759Y-89900241D01*
X157848343Y-89753838D01*
X157834176Y-89741738D01*
X157834173Y-89741737D01*
X157626089Y-89614222D01*
X157400618Y-89520830D01*
X157400621Y-89520830D01*
X157225418Y-89478767D01*
X157163302Y-89463854D01*
X157163300Y-89463853D01*
X157163297Y-89463853D01*
X156920000Y-89444706D01*
X156676702Y-89463853D01*
X156439380Y-89520830D01*
X156213910Y-89614222D01*
X156005826Y-89741737D01*
X156005823Y-89741738D01*
X155820241Y-89900241D01*
X155661738Y-90085823D01*
X155661737Y-90085826D01*
X155534222Y-90293910D01*
X155440830Y-90519380D01*
X155383853Y-90756702D01*
X155364706Y-91000000D01*
X145200500Y-91000000D01*
X145200500Y-89841519D01*
X145220185Y-89774480D01*
X145236819Y-89753838D01*
X146753838Y-88236819D01*
X146815161Y-88203334D01*
X146841519Y-88200500D01*
X160648996Y-88200500D01*
X160740040Y-88182389D01*
X160784328Y-88173580D01*
X160848069Y-88147177D01*
X160911807Y-88120777D01*
X160911808Y-88120776D01*
X160911811Y-88120775D01*
X161026543Y-88044114D01*
X163463912Y-85606743D01*
X163525233Y-85573260D01*
X163580533Y-85573851D01*
X163756698Y-85616146D01*
X164000000Y-85635294D01*
X164243302Y-85616146D01*
X164480612Y-85559172D01*
X164706089Y-85465777D01*
X164914179Y-85338259D01*
X165099759Y-85179759D01*
X165258259Y-84994179D01*
X165385777Y-84786089D01*
X165479172Y-84560612D01*
X165536146Y-84323302D01*
X165555294Y-84080000D01*
X165536146Y-83836698D01*
X165479172Y-83599388D01*
X165446032Y-83519380D01*
X165385777Y-83373910D01*
X165258262Y-83165826D01*
X165258261Y-83165823D01*
X165189934Y-83085823D01*
X165099759Y-82980241D01*
X164916001Y-82823297D01*
X164914176Y-82821738D01*
X164914173Y-82821737D01*
X164706089Y-82694222D01*
X164480618Y-82600830D01*
X164480621Y-82600830D01*
X164374992Y-82575470D01*
X164243302Y-82543854D01*
X164243300Y-82543853D01*
X164243297Y-82543853D01*
X164000000Y-82524706D01*
X163756702Y-82543853D01*
X163756698Y-82543854D01*
X163606142Y-82580000D01*
X163519380Y-82600830D01*
X163293910Y-82694222D01*
X163085826Y-82821737D01*
X163085823Y-82821738D01*
X162900241Y-82980241D01*
X162741738Y-83165823D01*
X162741737Y-83165826D01*
X162614222Y-83373910D01*
X162520830Y-83599380D01*
X162463853Y-83836702D01*
X162444706Y-84080000D01*
X162463853Y-84323298D01*
X162506146Y-84499460D01*
X162502655Y-84569242D01*
X162473253Y-84616088D01*
X160326162Y-86763181D01*
X160264839Y-86796666D01*
X160238481Y-86799500D01*
X146431005Y-86799500D01*
X146295677Y-86826418D01*
X146295667Y-86826421D01*
X146168192Y-86879222D01*
X146053454Y-86955887D01*
X143955888Y-89053453D01*
X143955885Y-89053457D01*
X143927602Y-89095786D01*
X143873989Y-89140591D01*
X143804664Y-89149298D01*
X143741637Y-89119143D01*
X143704918Y-89059700D01*
X143700500Y-89026895D01*
X143700500Y-88511004D01*
X143673581Y-88375677D01*
X143673580Y-88375676D01*
X143673580Y-88375672D01*
X143673578Y-88375667D01*
X143620778Y-88248195D01*
X143620771Y-88248182D01*
X143544115Y-88133459D01*
X143531431Y-88120775D01*
X143446542Y-88035886D01*
X141017401Y-85606745D01*
X138526746Y-83116089D01*
X138493261Y-83054766D01*
X138493852Y-82999462D01*
X138536146Y-82823302D01*
X138555294Y-82580000D01*
X149444706Y-82580000D01*
X149463853Y-82823297D01*
X149463853Y-82823300D01*
X149463854Y-82823302D01*
X149519424Y-83054766D01*
X149520830Y-83060619D01*
X149614222Y-83286089D01*
X149741737Y-83494173D01*
X149741738Y-83494176D01*
X149763271Y-83519388D01*
X149900241Y-83679759D01*
X149990330Y-83756702D01*
X150085823Y-83838261D01*
X150085826Y-83838262D01*
X150293910Y-83965777D01*
X150519381Y-84059169D01*
X150519378Y-84059169D01*
X150519384Y-84059170D01*
X150519388Y-84059172D01*
X150756698Y-84116146D01*
X151000000Y-84135294D01*
X151243302Y-84116146D01*
X151480612Y-84059172D01*
X151706089Y-83965777D01*
X151914179Y-83838259D01*
X152099759Y-83679759D01*
X152258259Y-83494179D01*
X152385777Y-83286089D01*
X152479172Y-83060612D01*
X152536146Y-82823302D01*
X152555294Y-82580000D01*
X152536146Y-82336698D01*
X152479172Y-82099388D01*
X152385777Y-81873911D01*
X152385777Y-81873910D01*
X152258262Y-81665826D01*
X152258261Y-81665823D01*
X152222453Y-81623897D01*
X152099759Y-81480241D01*
X151977063Y-81375449D01*
X151914176Y-81321738D01*
X151914173Y-81321737D01*
X151706089Y-81194222D01*
X151480618Y-81100830D01*
X151480621Y-81100830D01*
X151374992Y-81075470D01*
X151243302Y-81043854D01*
X151243300Y-81043853D01*
X151243297Y-81043853D01*
X151000000Y-81024706D01*
X150756702Y-81043853D01*
X150519380Y-81100830D01*
X150293910Y-81194222D01*
X150085826Y-81321737D01*
X150085823Y-81321738D01*
X149900241Y-81480241D01*
X149741738Y-81665823D01*
X149741737Y-81665826D01*
X149614222Y-81873910D01*
X149520830Y-82099380D01*
X149463853Y-82336702D01*
X149444706Y-82580000D01*
X138555294Y-82580000D01*
X138536146Y-82336698D01*
X138479172Y-82099388D01*
X138385777Y-81873911D01*
X138385777Y-81873910D01*
X138258262Y-81665826D01*
X138258261Y-81665823D01*
X138222453Y-81623897D01*
X138099759Y-81480241D01*
X137977063Y-81375449D01*
X137914176Y-81321738D01*
X137914173Y-81321737D01*
X137706089Y-81194222D01*
X137480618Y-81100830D01*
X137480621Y-81100830D01*
X137374992Y-81075470D01*
X137243302Y-81043854D01*
X137243300Y-81043853D01*
X137243297Y-81043853D01*
X137000000Y-81024706D01*
X136756702Y-81043853D01*
X136519380Y-81100830D01*
X136293910Y-81194222D01*
X136085826Y-81321737D01*
X136085823Y-81321738D01*
X135900241Y-81480241D01*
X135741738Y-81665823D01*
X135741737Y-81665826D01*
X135614222Y-81873910D01*
X135520830Y-82099380D01*
X135463853Y-82336702D01*
X135444706Y-82580000D01*
X135463853Y-82823297D01*
X135463853Y-82823300D01*
X135463854Y-82823302D01*
X135519424Y-83054766D01*
X135520830Y-83060619D01*
X135614222Y-83286089D01*
X135741737Y-83494173D01*
X135741738Y-83494176D01*
X135763271Y-83519388D01*
X135900241Y-83679759D01*
X135990330Y-83756702D01*
X136085823Y-83838261D01*
X136085826Y-83838262D01*
X136293910Y-83965777D01*
X136519381Y-84059169D01*
X136519378Y-84059169D01*
X136519384Y-84059170D01*
X136519388Y-84059172D01*
X136756698Y-84116146D01*
X137000000Y-84135294D01*
X137243302Y-84116146D01*
X137419461Y-84073853D01*
X137489243Y-84077344D01*
X137536089Y-84106746D01*
X142263181Y-88833837D01*
X142296666Y-88895160D01*
X142299500Y-88921518D01*
X142299500Y-97931006D01*
X142299500Y-98068994D01*
X142299500Y-98068996D01*
X142299499Y-98068996D01*
X142326418Y-98204322D01*
X142326421Y-98204332D01*
X142379222Y-98331807D01*
X142455887Y-98446545D01*
X142455888Y-98446546D01*
X143263181Y-99253838D01*
X143296666Y-99315161D01*
X143299500Y-99341519D01*
X143299500Y-99541354D01*
X143279815Y-99608393D01*
X143240290Y-99647081D01*
X143085826Y-99741737D01*
X143085823Y-99741738D01*
X142900241Y-99900241D01*
X142824290Y-99989168D01*
X142765783Y-100027361D01*
X142695915Y-100027859D01*
X142636869Y-99990505D01*
X142635710Y-99989168D01*
X142573880Y-99916775D01*
X142559759Y-99900241D01*
X142397354Y-99761534D01*
X142374176Y-99741738D01*
X142374173Y-99741737D01*
X142166089Y-99614222D01*
X141940618Y-99520830D01*
X141940621Y-99520830D01*
X141806862Y-99488717D01*
X141703302Y-99463854D01*
X141703300Y-99463853D01*
X141703297Y-99463853D01*
X141460000Y-99444706D01*
X141216702Y-99463853D01*
X140979380Y-99520830D01*
X140753910Y-99614222D01*
X140545829Y-99741735D01*
X140545821Y-99741741D01*
X140489860Y-99789535D01*
X140426098Y-99818104D01*
X140357013Y-99807666D01*
X140304538Y-99761535D01*
X140297935Y-99751026D01*
X140168974Y-99622065D01*
X140147215Y-99608393D01*
X140014552Y-99525035D01*
X140014551Y-99525034D01*
X140014550Y-99525034D01*
X139957169Y-99504955D01*
X139842403Y-99464797D01*
X139706632Y-99449500D01*
X139706626Y-99449500D01*
X138133374Y-99449500D01*
X138133367Y-99449500D01*
X137997596Y-99464797D01*
X137825447Y-99525035D01*
X137671025Y-99622065D01*
X137542065Y-99751025D01*
X137445035Y-99905447D01*
X137384797Y-100077596D01*
X137383470Y-100089382D01*
X137356404Y-100153796D01*
X137298810Y-100193352D01*
X137260250Y-100199500D01*
X133421155Y-100199500D01*
X133266510Y-100230261D01*
X133266498Y-100230264D01*
X133120827Y-100290602D01*
X133120814Y-100290609D01*
X133013646Y-100362218D01*
X133013645Y-100362219D01*
X132989708Y-100378212D01*
X132989707Y-100378213D01*
X131204741Y-102163181D01*
X131143418Y-102196666D01*
X131117060Y-102199500D01*
X123624499Y-102199500D01*
X123557460Y-102179815D01*
X123511705Y-102127011D01*
X123500499Y-102075500D01*
X123500499Y-101952129D01*
X123500498Y-101952123D01*
X123500497Y-101952116D01*
X123494091Y-101892517D01*
X123443796Y-101757669D01*
X123443795Y-101757668D01*
X123443793Y-101757664D01*
X123357547Y-101642456D01*
X123357548Y-101642456D01*
X123357546Y-101642454D01*
X123242331Y-101556204D01*
X123242329Y-101556203D01*
X123241012Y-101555217D01*
X123199141Y-101499283D01*
X123194157Y-101429591D01*
X123211515Y-101388128D01*
X123323731Y-101216369D01*
X123423587Y-100988717D01*
X123484612Y-100747738D01*
X123484614Y-100747729D01*
X123505141Y-100500000D01*
X123505141Y-100499994D01*
X123484614Y-100252270D01*
X123484612Y-100252261D01*
X123423587Y-100011282D01*
X123323731Y-99783630D01*
X123223434Y-99630116D01*
X122400000Y-100453550D01*
X122400000Y-100447339D01*
X122372741Y-100345606D01*
X122320080Y-100254394D01*
X122245606Y-100179920D01*
X122154394Y-100127259D01*
X122052661Y-100100000D01*
X122046448Y-100100000D01*
X122870057Y-99276390D01*
X122870056Y-99276389D01*
X122823229Y-99239943D01*
X122604614Y-99121635D01*
X122604603Y-99121630D01*
X122369493Y-99040916D01*
X122124293Y-99000000D01*
X121875707Y-99000000D01*
X121630506Y-99040916D01*
X121395396Y-99121630D01*
X121395390Y-99121632D01*
X121176761Y-99239949D01*
X121129942Y-99276388D01*
X121129942Y-99276390D01*
X121953553Y-100100000D01*
X121947339Y-100100000D01*
X121845606Y-100127259D01*
X121754394Y-100179920D01*
X121679920Y-100254394D01*
X121627259Y-100345606D01*
X121600000Y-100447339D01*
X121600000Y-100453552D01*
X120776564Y-99630116D01*
X120676267Y-99783632D01*
X120576412Y-100011282D01*
X120515387Y-100252261D01*
X120515385Y-100252270D01*
X120494859Y-100499994D01*
X120494859Y-100500000D01*
X120515385Y-100747729D01*
X120515387Y-100747738D01*
X120576412Y-100988717D01*
X120676267Y-101216367D01*
X120788484Y-101388129D01*
X120808672Y-101455018D01*
X120789491Y-101522204D01*
X120758987Y-101555216D01*
X120642452Y-101642455D01*
X120556206Y-101757664D01*
X120556202Y-101757671D01*
X120505908Y-101892517D01*
X120502695Y-101922407D01*
X120499501Y-101952123D01*
X120499500Y-101952135D01*
X120499500Y-102817059D01*
X120479815Y-102884098D01*
X120463181Y-102904740D01*
X120204741Y-103163181D01*
X120143418Y-103196666D01*
X120117060Y-103199500D01*
X114336469Y-103199500D01*
X114269430Y-103179815D01*
X114232660Y-103143321D01*
X114188166Y-103075217D01*
X114155746Y-103040000D01*
X114019744Y-102892262D01*
X113823509Y-102739526D01*
X113823507Y-102739525D01*
X113823506Y-102739524D01*
X113604811Y-102621172D01*
X113604802Y-102621169D01*
X113369616Y-102540429D01*
X113124335Y-102499500D01*
X112875665Y-102499500D01*
X112729438Y-102523899D01*
X112660073Y-102515516D01*
X112621349Y-102489271D01*
X109336819Y-99204741D01*
X109303334Y-99143418D01*
X109300500Y-99117060D01*
X109300500Y-98999994D01*
X111494859Y-98999994D01*
X111494859Y-99000000D01*
X111515385Y-99247729D01*
X111515387Y-99247738D01*
X111576412Y-99488717D01*
X111676266Y-99716364D01*
X111776564Y-99869882D01*
X112557861Y-99088584D01*
X112580667Y-99173694D01*
X112639910Y-99276306D01*
X112723694Y-99360090D01*
X112826306Y-99419333D01*
X112911414Y-99442137D01*
X112129942Y-100223609D01*
X112176768Y-100260055D01*
X112176770Y-100260056D01*
X112395385Y-100378364D01*
X112395396Y-100378369D01*
X112630506Y-100459083D01*
X112875707Y-100500000D01*
X113124293Y-100500000D01*
X113369493Y-100459083D01*
X113604603Y-100378369D01*
X113604614Y-100378364D01*
X113823228Y-100260057D01*
X113823231Y-100260055D01*
X113870056Y-100223609D01*
X113088585Y-99442138D01*
X113173694Y-99419333D01*
X113276306Y-99360090D01*
X113360090Y-99276306D01*
X113419333Y-99173694D01*
X113442137Y-99088585D01*
X114223434Y-99869882D01*
X114323731Y-99716369D01*
X114423587Y-99488717D01*
X114484612Y-99247738D01*
X114484614Y-99247729D01*
X114505141Y-99000000D01*
X114505141Y-98999994D01*
X114484614Y-98752270D01*
X114484612Y-98752261D01*
X114423587Y-98511282D01*
X114323731Y-98283630D01*
X114223434Y-98130116D01*
X113442137Y-98911414D01*
X113419333Y-98826306D01*
X113360090Y-98723694D01*
X113276306Y-98639910D01*
X113173694Y-98580667D01*
X113088585Y-98557862D01*
X113870057Y-97776390D01*
X113870056Y-97776389D01*
X113823229Y-97739943D01*
X113604614Y-97621635D01*
X113604603Y-97621630D01*
X113369493Y-97540916D01*
X113124293Y-97500000D01*
X112875707Y-97500000D01*
X112630506Y-97540916D01*
X112395396Y-97621630D01*
X112395390Y-97621632D01*
X112176761Y-97739949D01*
X112129942Y-97776388D01*
X112129942Y-97776390D01*
X112911414Y-98557861D01*
X112826306Y-98580667D01*
X112723694Y-98639910D01*
X112639910Y-98723694D01*
X112580667Y-98826306D01*
X112557862Y-98911414D01*
X111776564Y-98130116D01*
X111676267Y-98283632D01*
X111576412Y-98511282D01*
X111515387Y-98752261D01*
X111515385Y-98752270D01*
X111494859Y-98999994D01*
X109300500Y-98999994D01*
X109300500Y-97382940D01*
X109320185Y-97315901D01*
X109336819Y-97295259D01*
X110295259Y-96336819D01*
X110356582Y-96303334D01*
X110382940Y-96300500D01*
X119522635Y-96300500D01*
X119589674Y-96320185D01*
X119628360Y-96359707D01*
X119661741Y-96414179D01*
X119820241Y-96599759D01*
X119915551Y-96681161D01*
X120005823Y-96758261D01*
X120005826Y-96758262D01*
X120213910Y-96885777D01*
X120439381Y-96979169D01*
X120439378Y-96979169D01*
X120439384Y-96979170D01*
X120439388Y-96979172D01*
X120676698Y-97036146D01*
X120920000Y-97055294D01*
X121163302Y-97036146D01*
X121400612Y-96979172D01*
X121626089Y-96885777D01*
X121834179Y-96758259D01*
X122019759Y-96599759D01*
X122178259Y-96414179D01*
X122305777Y-96206089D01*
X122399172Y-95980612D01*
X122456146Y-95743302D01*
X122475294Y-95500000D01*
X129524706Y-95500000D01*
X129543853Y-95743297D01*
X129543853Y-95743300D01*
X129543854Y-95743302D01*
X129584533Y-95912741D01*
X129600830Y-95980619D01*
X129694222Y-96206089D01*
X129821737Y-96414173D01*
X129821738Y-96414176D01*
X129821741Y-96414179D01*
X129980241Y-96599759D01*
X130075551Y-96681161D01*
X130165823Y-96758261D01*
X130165826Y-96758262D01*
X130373910Y-96885777D01*
X130599381Y-96979169D01*
X130599378Y-96979169D01*
X130599384Y-96979170D01*
X130599388Y-96979172D01*
X130836698Y-97036146D01*
X131080000Y-97055294D01*
X131323302Y-97036146D01*
X131560612Y-96979172D01*
X131786089Y-96885777D01*
X131994179Y-96758259D01*
X132179759Y-96599759D01*
X132338259Y-96414179D01*
X132465777Y-96206089D01*
X132559172Y-95980612D01*
X132616146Y-95743302D01*
X132632146Y-95540000D01*
X135070284Y-95540000D01*
X135089116Y-95779295D01*
X135145155Y-96012711D01*
X135145158Y-96012719D01*
X135237010Y-96234473D01*
X135237012Y-96234476D01*
X135356684Y-96429762D01*
X136200000Y-95586446D01*
X136200000Y-95592661D01*
X136227259Y-95694394D01*
X136279920Y-95785606D01*
X136354394Y-95860080D01*
X136445606Y-95912741D01*
X136547339Y-95940000D01*
X136553553Y-95940000D01*
X135710236Y-96783314D01*
X135905523Y-96902987D01*
X135905526Y-96902989D01*
X136127280Y-96994841D01*
X136127288Y-96994844D01*
X136360704Y-97050883D01*
X136600000Y-97069715D01*
X136839295Y-97050883D01*
X137072711Y-96994844D01*
X137072719Y-96994841D01*
X137294473Y-96902989D01*
X137294476Y-96902987D01*
X137489762Y-96783315D01*
X137489762Y-96783314D01*
X136646447Y-95940000D01*
X136652661Y-95940000D01*
X136754394Y-95912741D01*
X136845606Y-95860080D01*
X136920080Y-95785606D01*
X136972741Y-95694394D01*
X137000000Y-95592661D01*
X137000000Y-95586448D01*
X137843314Y-96429762D01*
X137893978Y-96347086D01*
X137945790Y-96300210D01*
X138014720Y-96288787D01*
X138078883Y-96316444D01*
X138105433Y-96347085D01*
X138162024Y-96439434D01*
X138162025Y-96439436D01*
X138162028Y-96439439D01*
X138317973Y-96622027D01*
X138500561Y-96777972D01*
X138509280Y-96783315D01*
X138705297Y-96903434D01*
X138802047Y-96943508D01*
X138927137Y-96995323D01*
X139160621Y-97051377D01*
X139400000Y-97070217D01*
X139639379Y-97051377D01*
X139872863Y-96995323D01*
X140094704Y-96903433D01*
X140299439Y-96777972D01*
X140482027Y-96622027D01*
X140637972Y-96439439D01*
X140763433Y-96234704D01*
X140763528Y-96234476D01*
X140810205Y-96121786D01*
X140855323Y-96012863D01*
X140911377Y-95779379D01*
X140930217Y-95540000D01*
X140911377Y-95300621D01*
X140855323Y-95067137D01*
X140784696Y-94896629D01*
X140763434Y-94845297D01*
X140637973Y-94640563D01*
X140637972Y-94640561D01*
X140482027Y-94457973D01*
X140356304Y-94350595D01*
X140334737Y-94332175D01*
X140296544Y-94273668D01*
X140294278Y-94247831D01*
X139446447Y-93400000D01*
X139452661Y-93400000D01*
X139554394Y-93372741D01*
X139645606Y-93320080D01*
X139720080Y-93245606D01*
X139772741Y-93154394D01*
X139800000Y-93052661D01*
X139800000Y-93046448D01*
X140643314Y-93889762D01*
X140643315Y-93889762D01*
X140762987Y-93694476D01*
X140762989Y-93694473D01*
X140854841Y-93472719D01*
X140854844Y-93472711D01*
X140910883Y-93239295D01*
X140929715Y-93000000D01*
X140910883Y-92760704D01*
X140854844Y-92527288D01*
X140854841Y-92527280D01*
X140762989Y-92305526D01*
X140762987Y-92305523D01*
X140643314Y-92110236D01*
X139800000Y-92953551D01*
X139800000Y-92947339D01*
X139772741Y-92845606D01*
X139720080Y-92754394D01*
X139645606Y-92679920D01*
X139554394Y-92627259D01*
X139452661Y-92600000D01*
X139446448Y-92600000D01*
X140289762Y-91756684D01*
X140094476Y-91637012D01*
X140094473Y-91637010D01*
X139872719Y-91545158D01*
X139872711Y-91545155D01*
X139639295Y-91489116D01*
X139400000Y-91470284D01*
X139160704Y-91489116D01*
X138927288Y-91545155D01*
X138927280Y-91545158D01*
X138705526Y-91637010D01*
X138705523Y-91637012D01*
X138510236Y-91756684D01*
X139353553Y-92600000D01*
X139347339Y-92600000D01*
X139245606Y-92627259D01*
X139154394Y-92679920D01*
X139079920Y-92754394D01*
X139027259Y-92845606D01*
X139000000Y-92947339D01*
X139000000Y-92953552D01*
X138114156Y-92067708D01*
X138114337Y-92067526D01*
X138089787Y-92045151D01*
X138078708Y-92021701D01*
X138048941Y-91936631D01*
X138000608Y-91859710D01*
X137950595Y-91780115D01*
X137819885Y-91649405D01*
X137663367Y-91551058D01*
X137605207Y-91530707D01*
X137488885Y-91490004D01*
X137351275Y-91474500D01*
X135848727Y-91474500D01*
X135848723Y-91474501D01*
X135711113Y-91490005D01*
X135536631Y-91551058D01*
X135380114Y-91649405D01*
X135249405Y-91780114D01*
X135151059Y-91936630D01*
X135090004Y-92111114D01*
X135074500Y-92248722D01*
X135074500Y-93751272D01*
X135074501Y-93751276D01*
X135090005Y-93888886D01*
X135090005Y-93888888D01*
X135090006Y-93888889D01*
X135097603Y-93910600D01*
X135151058Y-94063368D01*
X135249405Y-94219885D01*
X135380117Y-94350597D01*
X135408391Y-94368362D01*
X135454683Y-94420696D01*
X135465332Y-94489749D01*
X135436957Y-94553598D01*
X135436710Y-94553887D01*
X135362440Y-94640845D01*
X135362432Y-94640857D01*
X135237012Y-94845523D01*
X135237010Y-94845526D01*
X135145158Y-95067280D01*
X135145155Y-95067288D01*
X135089116Y-95300704D01*
X135070284Y-95540000D01*
X132632146Y-95540000D01*
X132635294Y-95500000D01*
X132616146Y-95256698D01*
X132559172Y-95019388D01*
X132559169Y-95019380D01*
X132465777Y-94793910D01*
X132338262Y-94585826D01*
X132338261Y-94585823D01*
X132273497Y-94509994D01*
X132179759Y-94400241D01*
X132004134Y-94250243D01*
X131994176Y-94241738D01*
X131994173Y-94241737D01*
X131786089Y-94114222D01*
X131560618Y-94020830D01*
X131560621Y-94020830D01*
X131454992Y-93995470D01*
X131323302Y-93963854D01*
X131323300Y-93963853D01*
X131323297Y-93963853D01*
X131080000Y-93944706D01*
X130836702Y-93963853D01*
X130599380Y-94020830D01*
X130373910Y-94114222D01*
X130165826Y-94241737D01*
X130165823Y-94241738D01*
X129980241Y-94400241D01*
X129821738Y-94585823D01*
X129821737Y-94585826D01*
X129694222Y-94793910D01*
X129600830Y-95019380D01*
X129543853Y-95256702D01*
X129524706Y-95500000D01*
X122475294Y-95500000D01*
X122456146Y-95256698D01*
X122399172Y-95019388D01*
X122399169Y-95019380D01*
X122305777Y-94793910D01*
X122178262Y-94585826D01*
X122178261Y-94585823D01*
X122113497Y-94509994D01*
X122019759Y-94400241D01*
X121844134Y-94250243D01*
X121834176Y-94241738D01*
X121834173Y-94241737D01*
X121626089Y-94114222D01*
X121400618Y-94020830D01*
X121400621Y-94020830D01*
X121294992Y-93995470D01*
X121163302Y-93963854D01*
X121163300Y-93963853D01*
X121163297Y-93963853D01*
X120920000Y-93944706D01*
X120676702Y-93963853D01*
X120439380Y-94020830D01*
X120213910Y-94114222D01*
X120005826Y-94241737D01*
X120005823Y-94241738D01*
X119820241Y-94400241D01*
X119661741Y-94585820D01*
X119647729Y-94608685D01*
X119628361Y-94640291D01*
X119576551Y-94687165D01*
X119522635Y-94699500D01*
X109921154Y-94699500D01*
X109766509Y-94730261D01*
X109766497Y-94730264D01*
X109723832Y-94747936D01*
X109723833Y-94747937D01*
X109620823Y-94790604D01*
X109620814Y-94790609D01*
X109493391Y-94875751D01*
X109426713Y-94896629D01*
X109359333Y-94878144D01*
X109312643Y-94826165D01*
X109300500Y-94772649D01*
X109300500Y-92882940D01*
X109320185Y-92815901D01*
X109336819Y-92795259D01*
X110295259Y-91836819D01*
X110356582Y-91803334D01*
X110382940Y-91800500D01*
X119522635Y-91800500D01*
X119589674Y-91820185D01*
X119628360Y-91859707D01*
X119661741Y-91914179D01*
X119820241Y-92099759D01*
X119963897Y-92222453D01*
X120005823Y-92258261D01*
X120005826Y-92258262D01*
X120213910Y-92385777D01*
X120439381Y-92479169D01*
X120439378Y-92479169D01*
X120439384Y-92479170D01*
X120439388Y-92479172D01*
X120676698Y-92536146D01*
X120920000Y-92555294D01*
X121163302Y-92536146D01*
X121400612Y-92479172D01*
X121626089Y-92385777D01*
X121834179Y-92258259D01*
X122019759Y-92099759D01*
X122178259Y-91914179D01*
X122305777Y-91706089D01*
X122399172Y-91480612D01*
X122456146Y-91243302D01*
X122475294Y-91000000D01*
X129524706Y-91000000D01*
X129543853Y-91243297D01*
X129543853Y-91243300D01*
X129543854Y-91243302D01*
X129598348Y-91470284D01*
X129600830Y-91480619D01*
X129694222Y-91706089D01*
X129821737Y-91914173D01*
X129821738Y-91914176D01*
X129821741Y-91914179D01*
X129980241Y-92099759D01*
X130123897Y-92222453D01*
X130165823Y-92258261D01*
X130165826Y-92258262D01*
X130373910Y-92385777D01*
X130599381Y-92479169D01*
X130599378Y-92479169D01*
X130599384Y-92479170D01*
X130599388Y-92479172D01*
X130836698Y-92536146D01*
X131080000Y-92555294D01*
X131323302Y-92536146D01*
X131560612Y-92479172D01*
X131786089Y-92385777D01*
X131994179Y-92258259D01*
X132179759Y-92099759D01*
X132338259Y-91914179D01*
X132465777Y-91706089D01*
X132559172Y-91480612D01*
X132616146Y-91243302D01*
X132635294Y-91000000D01*
X132616146Y-90756698D01*
X132559172Y-90519388D01*
X132508324Y-90396629D01*
X132465777Y-90293910D01*
X132338262Y-90085826D01*
X132338261Y-90085823D01*
X132300774Y-90041932D01*
X132179759Y-89900241D01*
X132008343Y-89753838D01*
X131994176Y-89741738D01*
X131994173Y-89741737D01*
X131786089Y-89614222D01*
X131560618Y-89520830D01*
X131560621Y-89520830D01*
X131385418Y-89478767D01*
X131323302Y-89463854D01*
X131323300Y-89463853D01*
X131323297Y-89463853D01*
X131080000Y-89444706D01*
X130836702Y-89463853D01*
X130599380Y-89520830D01*
X130373910Y-89614222D01*
X130165826Y-89741737D01*
X130165823Y-89741738D01*
X129980241Y-89900241D01*
X129821738Y-90085823D01*
X129821737Y-90085826D01*
X129694222Y-90293910D01*
X129600830Y-90519380D01*
X129543853Y-90756702D01*
X129524706Y-91000000D01*
X122475294Y-91000000D01*
X122456146Y-90756698D01*
X122399172Y-90519388D01*
X122348324Y-90396629D01*
X122305777Y-90293910D01*
X122178262Y-90085826D01*
X122178261Y-90085823D01*
X122140774Y-90041932D01*
X122019759Y-89900241D01*
X121848343Y-89753838D01*
X121834176Y-89741738D01*
X121834173Y-89741737D01*
X121626089Y-89614222D01*
X121400618Y-89520830D01*
X121400621Y-89520830D01*
X121225418Y-89478767D01*
X121163302Y-89463854D01*
X121163300Y-89463853D01*
X121163297Y-89463853D01*
X120920000Y-89444706D01*
X120676702Y-89463853D01*
X120439380Y-89520830D01*
X120213910Y-89614222D01*
X120005826Y-89741737D01*
X120005823Y-89741738D01*
X119820241Y-89900241D01*
X119661741Y-90085820D01*
X119647729Y-90108685D01*
X119628361Y-90140291D01*
X119576551Y-90187165D01*
X119522635Y-90199500D01*
X109921154Y-90199500D01*
X109766509Y-90230261D01*
X109766497Y-90230264D01*
X109723832Y-90247936D01*
X109723833Y-90247937D01*
X109620823Y-90290604D01*
X109620814Y-90290609D01*
X109493391Y-90375751D01*
X109426713Y-90396629D01*
X109359333Y-90378144D01*
X109312643Y-90326165D01*
X109300500Y-90272649D01*
X109300500Y-84882940D01*
X109320185Y-84815901D01*
X109336819Y-84795259D01*
X110132078Y-84000000D01*
X122444706Y-84000000D01*
X122463853Y-84243297D01*
X122463853Y-84243300D01*
X122463854Y-84243302D01*
X122483059Y-84323297D01*
X122520830Y-84480619D01*
X122614222Y-84706089D01*
X122741737Y-84914173D01*
X122741738Y-84914176D01*
X122741741Y-84914179D01*
X122900241Y-85099759D01*
X123043897Y-85222453D01*
X123085823Y-85258261D01*
X123085826Y-85258262D01*
X123293910Y-85385777D01*
X123519381Y-85479169D01*
X123519378Y-85479169D01*
X123519384Y-85479170D01*
X123519388Y-85479172D01*
X123756698Y-85536146D01*
X124000000Y-85555294D01*
X124243302Y-85536146D01*
X124480612Y-85479172D01*
X124706089Y-85385777D01*
X124914179Y-85258259D01*
X125099759Y-85099759D01*
X125258259Y-84914179D01*
X125385777Y-84706089D01*
X125479172Y-84480612D01*
X125536146Y-84243302D01*
X125555294Y-84000000D01*
X125536146Y-83756698D01*
X125479172Y-83519388D01*
X125418914Y-83373911D01*
X125385777Y-83293910D01*
X125258262Y-83085826D01*
X125258261Y-83085823D01*
X125168085Y-82980241D01*
X125099759Y-82900241D01*
X124977063Y-82795449D01*
X124914176Y-82741738D01*
X124914173Y-82741737D01*
X124706089Y-82614222D01*
X124480618Y-82520830D01*
X124480621Y-82520830D01*
X124374992Y-82495470D01*
X124243302Y-82463854D01*
X124243300Y-82463853D01*
X124243297Y-82463853D01*
X124000000Y-82444706D01*
X123756702Y-82463853D01*
X123519380Y-82520830D01*
X123293910Y-82614222D01*
X123085826Y-82741737D01*
X123085823Y-82741738D01*
X122900241Y-82900241D01*
X122741738Y-83085823D01*
X122741737Y-83085826D01*
X122614222Y-83293910D01*
X122520830Y-83519380D01*
X122463853Y-83756702D01*
X122444706Y-84000000D01*
X110132078Y-84000000D01*
X115172078Y-78960000D01*
X127470284Y-78960000D01*
X127489116Y-79199295D01*
X127545155Y-79432711D01*
X127545158Y-79432719D01*
X127637010Y-79654473D01*
X127637012Y-79654476D01*
X127756684Y-79849762D01*
X128600000Y-79006446D01*
X128600000Y-79012661D01*
X128627259Y-79114394D01*
X128679920Y-79205606D01*
X128754394Y-79280080D01*
X128845606Y-79332741D01*
X128947339Y-79360000D01*
X128953553Y-79360000D01*
X128110236Y-80203314D01*
X128305523Y-80322987D01*
X128305526Y-80322989D01*
X128527280Y-80414841D01*
X128527288Y-80414844D01*
X128760704Y-80470883D01*
X129000000Y-80489715D01*
X129239295Y-80470883D01*
X129472711Y-80414844D01*
X129472719Y-80414841D01*
X129694473Y-80322989D01*
X129694476Y-80322987D01*
X129889762Y-80203315D01*
X129889762Y-80203314D01*
X129046447Y-79360000D01*
X129052661Y-79360000D01*
X129154394Y-79332741D01*
X129245606Y-79280080D01*
X129320080Y-79205606D01*
X129372741Y-79114394D01*
X129400000Y-79012661D01*
X129400000Y-79006448D01*
X130243314Y-79849762D01*
X130293978Y-79767086D01*
X130345790Y-79720210D01*
X130414720Y-79708787D01*
X130478883Y-79736444D01*
X130505433Y-79767085D01*
X130562024Y-79859434D01*
X130562025Y-79859436D01*
X130562028Y-79859439D01*
X130717973Y-80042027D01*
X130900561Y-80197972D01*
X130965837Y-80237973D01*
X131105297Y-80323434D01*
X131170641Y-80350500D01*
X131327137Y-80415323D01*
X131560621Y-80471377D01*
X131800000Y-80490217D01*
X132039379Y-80471377D01*
X132272863Y-80415323D01*
X132494704Y-80323433D01*
X132699439Y-80197972D01*
X132882027Y-80042027D01*
X133037972Y-79859439D01*
X133163433Y-79654704D01*
X133163528Y-79654476D01*
X133175171Y-79626365D01*
X133255323Y-79432863D01*
X133311377Y-79199379D01*
X133327069Y-79000000D01*
X154470284Y-79000000D01*
X154489116Y-79239295D01*
X154545155Y-79472711D01*
X154545158Y-79472719D01*
X154637010Y-79694473D01*
X154637012Y-79694476D01*
X154756684Y-79889762D01*
X155600000Y-79046446D01*
X155600000Y-79052661D01*
X155627259Y-79154394D01*
X155679920Y-79245606D01*
X155754394Y-79320080D01*
X155845606Y-79372741D01*
X155947339Y-79400000D01*
X155953553Y-79400000D01*
X155110236Y-80243314D01*
X155305523Y-80362987D01*
X155305526Y-80362989D01*
X155527280Y-80454841D01*
X155527288Y-80454844D01*
X155760704Y-80510883D01*
X156000000Y-80529715D01*
X156239295Y-80510883D01*
X156472711Y-80454844D01*
X156472719Y-80454841D01*
X156694473Y-80362989D01*
X156694476Y-80362987D01*
X156889762Y-80243315D01*
X156889762Y-80243314D01*
X156046447Y-79400000D01*
X156052661Y-79400000D01*
X156154394Y-79372741D01*
X156245606Y-79320080D01*
X156320080Y-79245606D01*
X156372741Y-79154394D01*
X156400000Y-79052661D01*
X156400000Y-79046448D01*
X157243314Y-79889762D01*
X157293978Y-79807086D01*
X157345790Y-79760210D01*
X157414720Y-79748787D01*
X157478883Y-79776444D01*
X157505433Y-79807085D01*
X157562024Y-79899434D01*
X157562025Y-79899436D01*
X157562028Y-79899439D01*
X157717973Y-80082027D01*
X157900561Y-80237972D01*
X157975933Y-80284160D01*
X158105297Y-80363434D01*
X158202047Y-80403508D01*
X158327137Y-80455323D01*
X158560621Y-80511377D01*
X158800000Y-80530217D01*
X159039379Y-80511377D01*
X159272863Y-80455323D01*
X159494704Y-80363433D01*
X159699439Y-80237972D01*
X159882027Y-80082027D01*
X160037972Y-79899439D01*
X160163433Y-79694704D01*
X160163528Y-79694476D01*
X160180097Y-79654473D01*
X160255323Y-79472863D01*
X160311377Y-79239379D01*
X160330217Y-79000000D01*
X160311377Y-78760621D01*
X160255323Y-78527137D01*
X160193843Y-78378711D01*
X160163434Y-78305297D01*
X160037973Y-78100563D01*
X160037972Y-78100561D01*
X159882027Y-77917973D01*
X159756304Y-77810595D01*
X159734737Y-77792175D01*
X159696544Y-77733668D01*
X159694278Y-77707831D01*
X158846447Y-76860000D01*
X158852661Y-76860000D01*
X158954394Y-76832741D01*
X159045606Y-76780080D01*
X159120080Y-76705606D01*
X159172741Y-76614394D01*
X159200000Y-76512661D01*
X159200000Y-76506448D01*
X160043314Y-77349762D01*
X160043315Y-77349762D01*
X160162987Y-77154476D01*
X160162989Y-77154473D01*
X160254841Y-76932719D01*
X160254844Y-76932711D01*
X160310883Y-76699295D01*
X160329715Y-76460000D01*
X160310883Y-76220704D01*
X160254844Y-75987288D01*
X160254841Y-75987280D01*
X160162989Y-75765526D01*
X160162987Y-75765523D01*
X160043314Y-75570236D01*
X159200000Y-76413551D01*
X159200000Y-76407339D01*
X159172741Y-76305606D01*
X159120080Y-76214394D01*
X159045606Y-76139920D01*
X158954394Y-76087259D01*
X158852661Y-76060000D01*
X158846448Y-76060000D01*
X159689762Y-75216684D01*
X159494476Y-75097012D01*
X159494473Y-75097010D01*
X159272719Y-75005158D01*
X159272711Y-75005155D01*
X159039295Y-74949116D01*
X158800000Y-74930284D01*
X158560704Y-74949116D01*
X158327288Y-75005155D01*
X158327280Y-75005158D01*
X158105526Y-75097010D01*
X158105523Y-75097012D01*
X157910236Y-75216684D01*
X158753553Y-76060000D01*
X158747339Y-76060000D01*
X158645606Y-76087259D01*
X158554394Y-76139920D01*
X158479920Y-76214394D01*
X158427259Y-76305606D01*
X158400000Y-76407339D01*
X158400000Y-76413552D01*
X157514156Y-75527708D01*
X157514337Y-75527526D01*
X157489787Y-75505151D01*
X157478708Y-75481701D01*
X157448941Y-75396631D01*
X157350594Y-75240114D01*
X157219885Y-75109405D01*
X157063369Y-75011059D01*
X157063368Y-75011058D01*
X157063367Y-75011058D01*
X156949053Y-74971058D01*
X156888885Y-74950004D01*
X156751275Y-74934500D01*
X155248727Y-74934500D01*
X155248723Y-74934501D01*
X155111113Y-74950005D01*
X154936631Y-75011058D01*
X154780114Y-75109405D01*
X154649405Y-75240114D01*
X154551059Y-75396630D01*
X154490004Y-75571114D01*
X154474500Y-75708722D01*
X154474500Y-77211272D01*
X154474501Y-77211276D01*
X154490005Y-77348886D01*
X154490005Y-77348888D01*
X154490006Y-77348889D01*
X154497603Y-77370600D01*
X154551058Y-77523368D01*
X154649405Y-77679885D01*
X154780117Y-77810597D01*
X154808391Y-77828362D01*
X154854683Y-77880696D01*
X154865332Y-77949749D01*
X154836957Y-78013598D01*
X154836710Y-78013887D01*
X154762440Y-78100845D01*
X154762432Y-78100857D01*
X154637012Y-78305523D01*
X154637010Y-78305526D01*
X154545158Y-78527280D01*
X154545155Y-78527288D01*
X154489116Y-78760704D01*
X154470284Y-79000000D01*
X133327069Y-79000000D01*
X133330217Y-78960000D01*
X133311377Y-78720621D01*
X133255323Y-78487137D01*
X133180002Y-78305296D01*
X133163434Y-78265297D01*
X133037973Y-78060563D01*
X133037972Y-78060561D01*
X132882027Y-77877973D01*
X132756304Y-77770595D01*
X132734737Y-77752175D01*
X132696544Y-77693668D01*
X132694278Y-77667831D01*
X131846447Y-76820000D01*
X131852661Y-76820000D01*
X131954394Y-76792741D01*
X132045606Y-76740080D01*
X132120080Y-76665606D01*
X132172741Y-76574394D01*
X132200000Y-76472661D01*
X132200000Y-76466448D01*
X133043314Y-77309762D01*
X133043315Y-77309762D01*
X133162987Y-77114476D01*
X133162989Y-77114473D01*
X133254841Y-76892719D01*
X133254844Y-76892711D01*
X133310883Y-76659295D01*
X133329715Y-76420000D01*
X133310883Y-76180704D01*
X133254844Y-75947288D01*
X133254841Y-75947280D01*
X133162989Y-75725526D01*
X133162987Y-75725523D01*
X133043314Y-75530236D01*
X132200000Y-76373551D01*
X132200000Y-76367339D01*
X132172741Y-76265606D01*
X132120080Y-76174394D01*
X132045606Y-76099920D01*
X131954394Y-76047259D01*
X131852661Y-76020000D01*
X131846448Y-76020000D01*
X132689762Y-75176684D01*
X132494476Y-75057012D01*
X132494473Y-75057010D01*
X132272719Y-74965158D01*
X132272711Y-74965155D01*
X132039295Y-74909116D01*
X131800000Y-74890284D01*
X131560704Y-74909116D01*
X131327288Y-74965155D01*
X131327280Y-74965158D01*
X131105526Y-75057010D01*
X131105523Y-75057012D01*
X130910236Y-75176684D01*
X131753553Y-76020000D01*
X131747339Y-76020000D01*
X131645606Y-76047259D01*
X131554394Y-76099920D01*
X131479920Y-76174394D01*
X131427259Y-76265606D01*
X131400000Y-76367339D01*
X131400000Y-76373552D01*
X130514156Y-75487708D01*
X130514337Y-75487526D01*
X130489787Y-75465151D01*
X130478708Y-75441701D01*
X130462937Y-75396631D01*
X130448942Y-75356633D01*
X130350595Y-75200115D01*
X130219885Y-75069405D01*
X130140874Y-75019759D01*
X130063369Y-74971059D01*
X130063368Y-74971058D01*
X130063367Y-74971058D01*
X130003203Y-74950006D01*
X129888885Y-74910004D01*
X129751275Y-74894500D01*
X128248727Y-74894500D01*
X128248723Y-74894501D01*
X128111113Y-74910005D01*
X127936631Y-74971058D01*
X127780114Y-75069405D01*
X127649405Y-75200114D01*
X127551059Y-75356630D01*
X127490004Y-75531114D01*
X127474500Y-75668722D01*
X127474500Y-77171272D01*
X127474501Y-77171276D01*
X127490005Y-77308886D01*
X127490005Y-77308888D01*
X127490006Y-77308889D01*
X127497603Y-77330600D01*
X127551058Y-77483368D01*
X127649405Y-77639885D01*
X127780117Y-77770597D01*
X127808391Y-77788362D01*
X127854683Y-77840696D01*
X127865332Y-77909749D01*
X127836957Y-77973598D01*
X127836710Y-77973887D01*
X127762440Y-78060845D01*
X127762432Y-78060857D01*
X127637012Y-78265523D01*
X127637010Y-78265526D01*
X127545158Y-78487280D01*
X127545155Y-78487288D01*
X127489116Y-78720704D01*
X127470284Y-78960000D01*
X115172078Y-78960000D01*
X120545259Y-73586819D01*
X120606582Y-73553334D01*
X120632940Y-73550500D01*
X122333347Y-73550500D01*
X122400386Y-73570185D01*
X122446141Y-73622989D01*
X122456965Y-73684228D01*
X122444706Y-73839999D01*
X122463853Y-74083297D01*
X122463853Y-74083300D01*
X122463854Y-74083302D01*
X122506345Y-74260289D01*
X122520830Y-74320619D01*
X122614222Y-74546089D01*
X122741737Y-74754173D01*
X122741738Y-74754176D01*
X122795449Y-74817063D01*
X122900241Y-74939759D01*
X123037525Y-75057010D01*
X123085823Y-75098261D01*
X123085826Y-75098262D01*
X123293910Y-75225777D01*
X123519381Y-75319169D01*
X123519378Y-75319169D01*
X123519384Y-75319170D01*
X123519388Y-75319172D01*
X123756698Y-75376146D01*
X124000000Y-75395294D01*
X124243302Y-75376146D01*
X124480612Y-75319172D01*
X124706089Y-75225777D01*
X124914179Y-75098259D01*
X125099759Y-74939759D01*
X125258259Y-74754179D01*
X125385777Y-74546089D01*
X125479172Y-74320612D01*
X125536146Y-74083302D01*
X125555294Y-73840000D01*
X125536146Y-73596698D01*
X125479172Y-73359388D01*
X125468589Y-73333837D01*
X125385777Y-73133910D01*
X125258262Y-72925826D01*
X125258261Y-72925823D01*
X125215425Y-72875669D01*
X125099759Y-72740241D01*
X124968764Y-72628361D01*
X124914176Y-72581738D01*
X124914173Y-72581737D01*
X124706089Y-72454222D01*
X124480618Y-72360830D01*
X124480621Y-72360830D01*
X124290877Y-72315276D01*
X124243302Y-72303854D01*
X124243300Y-72303853D01*
X124243297Y-72303853D01*
X124000000Y-72284706D01*
X123756700Y-72303853D01*
X123756698Y-72303853D01*
X123694579Y-72318767D01*
X123624797Y-72315276D01*
X123577953Y-72285875D01*
X123420289Y-72128211D01*
X123420288Y-72128210D01*
X123420287Y-72128209D01*
X123289185Y-72040609D01*
X123289172Y-72040602D01*
X123143501Y-71980264D01*
X123143489Y-71980261D01*
X122988845Y-71949500D01*
X122988842Y-71949500D01*
X122481940Y-71949500D01*
X122414901Y-71929815D01*
X122369146Y-71877011D01*
X122359202Y-71807853D01*
X122388227Y-71744297D01*
X122394259Y-71737819D01*
X123295259Y-70836819D01*
X123356582Y-70803334D01*
X123382940Y-70800500D01*
X129163531Y-70800500D01*
X129230570Y-70820185D01*
X129267340Y-70856679D01*
X129311833Y-70924782D01*
X129335838Y-70950858D01*
X129480256Y-71107738D01*
X129676491Y-71260474D01*
X129895190Y-71378828D01*
X130130386Y-71459571D01*
X130375665Y-71500500D01*
X130624335Y-71500500D01*
X130869614Y-71459571D01*
X131104810Y-71378828D01*
X131323509Y-71260474D01*
X131519744Y-71107738D01*
X131688164Y-70924785D01*
X131695097Y-70914173D01*
X131732660Y-70856679D01*
X131785806Y-70811322D01*
X131836469Y-70800500D01*
X134197060Y-70800500D01*
X134264099Y-70820185D01*
X134284741Y-70836819D01*
X135445874Y-71997952D01*
X135479359Y-72059275D01*
X135478767Y-72114579D01*
X135463853Y-72176698D01*
X135463853Y-72176700D01*
X135444706Y-72420000D01*
X135463853Y-72663297D01*
X135463853Y-72663300D01*
X135463854Y-72663302D01*
X135514840Y-72875672D01*
X135520830Y-72900619D01*
X135614222Y-73126089D01*
X135741737Y-73334173D01*
X135741738Y-73334176D01*
X135763271Y-73359388D01*
X135900241Y-73519759D01*
X135990330Y-73596702D01*
X136085823Y-73678261D01*
X136085826Y-73678262D01*
X136293910Y-73805777D01*
X136519381Y-73899169D01*
X136519378Y-73899169D01*
X136519384Y-73899170D01*
X136519388Y-73899172D01*
X136756698Y-73956146D01*
X137000000Y-73975294D01*
X137243302Y-73956146D01*
X137480612Y-73899172D01*
X137706089Y-73805777D01*
X137914179Y-73678259D01*
X138099759Y-73519759D01*
X138258259Y-73334179D01*
X138385777Y-73126089D01*
X138479172Y-72900612D01*
X138536146Y-72663302D01*
X138555294Y-72420000D01*
X138536146Y-72176698D01*
X138479172Y-71939388D01*
X138464816Y-71904729D01*
X138385777Y-71713910D01*
X138258262Y-71505826D01*
X138258261Y-71505823D01*
X138179984Y-71414173D01*
X138099759Y-71320241D01*
X137966104Y-71206089D01*
X137914176Y-71161738D01*
X137914173Y-71161737D01*
X137701935Y-71031677D01*
X137702722Y-71030392D01*
X137656790Y-70987014D01*
X137639993Y-70919193D01*
X137662528Y-70853058D01*
X137717242Y-70809604D01*
X137763879Y-70800500D01*
X147921158Y-70800500D01*
X148197060Y-70800500D01*
X148264099Y-70820185D01*
X148284741Y-70836819D01*
X149445874Y-71997952D01*
X149479359Y-72059275D01*
X149478767Y-72114579D01*
X149463853Y-72176698D01*
X149463853Y-72176700D01*
X149444706Y-72420000D01*
X149463853Y-72663297D01*
X149463853Y-72663300D01*
X149463854Y-72663302D01*
X149514840Y-72875672D01*
X149520830Y-72900619D01*
X149614222Y-73126089D01*
X149741737Y-73334173D01*
X149741738Y-73334176D01*
X149763271Y-73359388D01*
X149900241Y-73519759D01*
X149990330Y-73596702D01*
X150085823Y-73678261D01*
X150085826Y-73678262D01*
X150293910Y-73805777D01*
X150519381Y-73899169D01*
X150519378Y-73899169D01*
X150519384Y-73899170D01*
X150519388Y-73899172D01*
X150756698Y-73956146D01*
X151000000Y-73975294D01*
X151243302Y-73956146D01*
X151480612Y-73899172D01*
X151706089Y-73805777D01*
X151914179Y-73678259D01*
X152099759Y-73519759D01*
X152258259Y-73334179D01*
X152385777Y-73126089D01*
X152479172Y-72900612D01*
X152536146Y-72663302D01*
X152555294Y-72420000D01*
X152536146Y-72176698D01*
X152479172Y-71939388D01*
X152464816Y-71904729D01*
X152385777Y-71713910D01*
X152258262Y-71505826D01*
X152258261Y-71505823D01*
X152179984Y-71414173D01*
X152099759Y-71320241D01*
X151966104Y-71206089D01*
X151914176Y-71161738D01*
X151914173Y-71161737D01*
X151701935Y-71031677D01*
X151702722Y-71030392D01*
X151656790Y-70987014D01*
X151639993Y-70919193D01*
X151662528Y-70853058D01*
X151717242Y-70809604D01*
X151763879Y-70800500D01*
X161617060Y-70800500D01*
X161684099Y-70820185D01*
X161704741Y-70836819D01*
X163163181Y-72295259D01*
X163196666Y-72356582D01*
X163199500Y-72382940D01*
X163199500Y-72522634D01*
X163179815Y-72589673D01*
X163140291Y-72628361D01*
X163085822Y-72661740D01*
X162900241Y-72820241D01*
X162741738Y-73005823D01*
X162741737Y-73005826D01*
X162614222Y-73213910D01*
X162520830Y-73439380D01*
X162463853Y-73676702D01*
X162444706Y-73920000D01*
X162463853Y-74163297D01*
X162463853Y-74163300D01*
X162463854Y-74163302D01*
X162501621Y-74320612D01*
X162520830Y-74400619D01*
X162614222Y-74626089D01*
X162741737Y-74834173D01*
X162741738Y-74834176D01*
X162741741Y-74834179D01*
X162900241Y-75019759D01*
X163005203Y-75109405D01*
X163085823Y-75178261D01*
X163085826Y-75178262D01*
X163293910Y-75305777D01*
X163416566Y-75356582D01*
X163513253Y-75396631D01*
X163519381Y-75399169D01*
X163519378Y-75399169D01*
X163519384Y-75399170D01*
X163519388Y-75399172D01*
X163756698Y-75456146D01*
X164000000Y-75475294D01*
X164243302Y-75456146D01*
X164480612Y-75399172D01*
X164706089Y-75305777D01*
X164914179Y-75178259D01*
X165099759Y-75019759D01*
X165258259Y-74834179D01*
X165385777Y-74626089D01*
X165479172Y-74400612D01*
X165536146Y-74163302D01*
X165555294Y-73920000D01*
X165536146Y-73676698D01*
X165479172Y-73439388D01*
X165479169Y-73439380D01*
X165385777Y-73213910D01*
X165261437Y-73011007D01*
X165258261Y-73005825D01*
X165258261Y-73005823D01*
X165189934Y-72925823D01*
X165099759Y-72820241D01*
X164914179Y-72661741D01*
X164898130Y-72651906D01*
X164859709Y-72628361D01*
X164812834Y-72576548D01*
X164800500Y-72522634D01*
X164800500Y-71921155D01*
X164800499Y-71921153D01*
X164793462Y-71885777D01*
X164769737Y-71766503D01*
X164769735Y-71766498D01*
X164709397Y-71620827D01*
X164709390Y-71620814D01*
X164621790Y-71489712D01*
X164591648Y-71459570D01*
X164510289Y-71378211D01*
X164144259Y-71012181D01*
X164110774Y-70950858D01*
X164115758Y-70881166D01*
X164157630Y-70825233D01*
X164223094Y-70800816D01*
X164231940Y-70800500D01*
X164617060Y-70800500D01*
X164684099Y-70820185D01*
X164704741Y-70836819D01*
X169163181Y-75295259D01*
X169196666Y-75356582D01*
X169199500Y-75382940D01*
X169199500Y-87697059D01*
X169179815Y-87764098D01*
X169163181Y-87784740D01*
X167502046Y-89445874D01*
X167440723Y-89479359D01*
X167385419Y-89478767D01*
X167323302Y-89463854D01*
X167323300Y-89463853D01*
X167323299Y-89463853D01*
X167080000Y-89444706D01*
X166836702Y-89463853D01*
X166599380Y-89520830D01*
X166373910Y-89614222D01*
X166165826Y-89741737D01*
X166165823Y-89741738D01*
X165980241Y-89900241D01*
X165821738Y-90085823D01*
X165821737Y-90085826D01*
X165694222Y-90293910D01*
X165600830Y-90519380D01*
X165543853Y-90756702D01*
X165524706Y-91000000D01*
X165543853Y-91243297D01*
X165543853Y-91243300D01*
X165543854Y-91243302D01*
X165598348Y-91470284D01*
X165600830Y-91480619D01*
X165694222Y-91706089D01*
X165821737Y-91914173D01*
X165821738Y-91914176D01*
X165821741Y-91914179D01*
X165980241Y-92099759D01*
X166123897Y-92222453D01*
X166165823Y-92258261D01*
X166165826Y-92258262D01*
X166373910Y-92385777D01*
X166599381Y-92479169D01*
X166599378Y-92479169D01*
X166599384Y-92479170D01*
X166599388Y-92479172D01*
X166836698Y-92536146D01*
X167080000Y-92555294D01*
X167323302Y-92536146D01*
X167560612Y-92479172D01*
X167786089Y-92385777D01*
X167994179Y-92258259D01*
X168179759Y-92099759D01*
X168338259Y-91914179D01*
X168465777Y-91706089D01*
X168559172Y-91480612D01*
X168616146Y-91243302D01*
X168635294Y-91000000D01*
X168616146Y-90756698D01*
X168601232Y-90694578D01*
X168604723Y-90624797D01*
X168634123Y-90577953D01*
X168987820Y-90224257D01*
X169049142Y-90190773D01*
X169118834Y-90195757D01*
X169174767Y-90237629D01*
X169199184Y-90303093D01*
X169199500Y-90311939D01*
X169199500Y-94117060D01*
X169179815Y-94184099D01*
X169163181Y-94204741D01*
X168704741Y-94663181D01*
X168643418Y-94696666D01*
X168617060Y-94699500D01*
X168477365Y-94699500D01*
X168410326Y-94679815D01*
X168371639Y-94640292D01*
X168338259Y-94585821D01*
X168179759Y-94400241D01*
X168004134Y-94250243D01*
X167994176Y-94241738D01*
X167994173Y-94241737D01*
X167786089Y-94114222D01*
X167560618Y-94020830D01*
X167560621Y-94020830D01*
X167454992Y-93995470D01*
X167323302Y-93963854D01*
X167323300Y-93963853D01*
X167323297Y-93963853D01*
X167080000Y-93944706D01*
X166836702Y-93963853D01*
X166599380Y-94020830D01*
X166373910Y-94114222D01*
X166165826Y-94241737D01*
X166165823Y-94241738D01*
X165980241Y-94400241D01*
X165821738Y-94585823D01*
X165821737Y-94585826D01*
X165694222Y-94793910D01*
X165600830Y-95019380D01*
X165543853Y-95256702D01*
X165524706Y-95500000D01*
X165543853Y-95743297D01*
X165543853Y-95743300D01*
X165543854Y-95743302D01*
X165584533Y-95912741D01*
X165600830Y-95980619D01*
X165694222Y-96206089D01*
X165821737Y-96414173D01*
X165821738Y-96414176D01*
X165821741Y-96414179D01*
X165980241Y-96599759D01*
X166075551Y-96681161D01*
X166165823Y-96758261D01*
X166165826Y-96758262D01*
X166373910Y-96885777D01*
X166599381Y-96979169D01*
X166599378Y-96979169D01*
X166599384Y-96979170D01*
X166599388Y-96979172D01*
X166836698Y-97036146D01*
X167080000Y-97055294D01*
X167323302Y-97036146D01*
X167560612Y-96979172D01*
X167786089Y-96885777D01*
X167994179Y-96758259D01*
X168179759Y-96599759D01*
X168338259Y-96414179D01*
X168371638Y-96359708D01*
X168423449Y-96312835D01*
X168477365Y-96300500D01*
X169078844Y-96300500D01*
X169078845Y-96300499D01*
X169233497Y-96269737D01*
X169379179Y-96209394D01*
X169510289Y-96121789D01*
X170621789Y-95010289D01*
X170709394Y-94879179D01*
X170769738Y-94733497D01*
X170800500Y-94578842D01*
X170800500Y-94421157D01*
X170800500Y-87921158D01*
X170800500Y-74921158D01*
X170800500Y-74921155D01*
X170800499Y-74921153D01*
X170798282Y-74910006D01*
X170769737Y-74766503D01*
X170731248Y-74673581D01*
X170709397Y-74620827D01*
X170709390Y-74620814D01*
X170621790Y-74489712D01*
X170621789Y-74489711D01*
X170510289Y-74378211D01*
X167144259Y-71012181D01*
X167110774Y-70950858D01*
X167115758Y-70881166D01*
X167157630Y-70825233D01*
X167223094Y-70800816D01*
X167231940Y-70800500D01*
X169022635Y-70800500D01*
X169089674Y-70820185D01*
X169128360Y-70859707D01*
X169161741Y-70914179D01*
X169320241Y-71099759D01*
X169392813Y-71161741D01*
X169505823Y-71258261D01*
X169505826Y-71258262D01*
X169713910Y-71385777D01*
X169939381Y-71479169D01*
X169939378Y-71479169D01*
X169939384Y-71479170D01*
X169939388Y-71479172D01*
X170176698Y-71536146D01*
X170420000Y-71555294D01*
X170663302Y-71536146D01*
X170900612Y-71479172D01*
X171126089Y-71385777D01*
X171334179Y-71258259D01*
X171519759Y-71099759D01*
X171678259Y-70914179D01*
X171805777Y-70706089D01*
X171899172Y-70480612D01*
X171956146Y-70243302D01*
X171975294Y-70000000D01*
X171956146Y-69756698D01*
X171899172Y-69519388D01*
X171891142Y-69500001D01*
X171805777Y-69293910D01*
X171678262Y-69085826D01*
X171678261Y-69085823D01*
X171628136Y-69027134D01*
X171519759Y-68900241D01*
X171345267Y-68751211D01*
X171334176Y-68741738D01*
X171334173Y-68741737D01*
X171126089Y-68614222D01*
X170900618Y-68520830D01*
X170900621Y-68520830D01*
X170794992Y-68495470D01*
X170663302Y-68463854D01*
X170663300Y-68463853D01*
X170663297Y-68463853D01*
X170420000Y-68444706D01*
X170176702Y-68463853D01*
X169939380Y-68520830D01*
X169713910Y-68614222D01*
X169505826Y-68741737D01*
X169505823Y-68741738D01*
X169320241Y-68900241D01*
X169161741Y-69085820D01*
X169153052Y-69100000D01*
X169128361Y-69140291D01*
X169076551Y-69187165D01*
X169022635Y-69199500D01*
X166231940Y-69199500D01*
X166164901Y-69179815D01*
X166119146Y-69127011D01*
X166109202Y-69057853D01*
X166138227Y-68994297D01*
X166144259Y-68987819D01*
X168295259Y-66836819D01*
X168356582Y-66803334D01*
X168382940Y-66800500D01*
X169022635Y-66800500D01*
X169089674Y-66820185D01*
X169128360Y-66859707D01*
X169161741Y-66914179D01*
X169320241Y-67099759D01*
X169436783Y-67199295D01*
X169505823Y-67258261D01*
X169505826Y-67258262D01*
X169713910Y-67385777D01*
X169939381Y-67479169D01*
X169939378Y-67479169D01*
X169939384Y-67479170D01*
X169939388Y-67479172D01*
X170176698Y-67536146D01*
X170420000Y-67555294D01*
X170663302Y-67536146D01*
X170900612Y-67479172D01*
X171126089Y-67385777D01*
X171334179Y-67258259D01*
X171519759Y-67099759D01*
X171678259Y-66914179D01*
X171805777Y-66706089D01*
X171899172Y-66480612D01*
X171956146Y-66243302D01*
X171975294Y-66000000D01*
X179024706Y-66000000D01*
X179043853Y-66243297D01*
X179043853Y-66243300D01*
X179043854Y-66243302D01*
X179096048Y-66460704D01*
X179100830Y-66480619D01*
X179194222Y-66706089D01*
X179321737Y-66914173D01*
X179321738Y-66914176D01*
X179327376Y-66920777D01*
X179480241Y-67099759D01*
X179596783Y-67199295D01*
X179665823Y-67258261D01*
X179665826Y-67258262D01*
X179873910Y-67385777D01*
X180099381Y-67479169D01*
X180099378Y-67479169D01*
X180099384Y-67479170D01*
X180099388Y-67479172D01*
X180336698Y-67536146D01*
X180580000Y-67555294D01*
X180823302Y-67536146D01*
X181060612Y-67479172D01*
X181286089Y-67385777D01*
X181494179Y-67258259D01*
X181679759Y-67099759D01*
X181838259Y-66914179D01*
X181965777Y-66706089D01*
X182059172Y-66480612D01*
X182116146Y-66243302D01*
X182135294Y-66000000D01*
X182116146Y-65756698D01*
X182059172Y-65519388D01*
X182042905Y-65480115D01*
X181965777Y-65293910D01*
X181838262Y-65085826D01*
X181838261Y-65085823D01*
X181800422Y-65041519D01*
X181679759Y-64900241D01*
X181519282Y-64763181D01*
X181494176Y-64741738D01*
X181494173Y-64741737D01*
X181286089Y-64614222D01*
X181060618Y-64520830D01*
X181060621Y-64520830D01*
X180947184Y-64493596D01*
X180823302Y-64463854D01*
X180823300Y-64463853D01*
X180823297Y-64463853D01*
X180580000Y-64444706D01*
X180336702Y-64463853D01*
X180336698Y-64463854D01*
X180186142Y-64500000D01*
X180099380Y-64520830D01*
X179873910Y-64614222D01*
X179665826Y-64741737D01*
X179665823Y-64741738D01*
X179480241Y-64900241D01*
X179321738Y-65085823D01*
X179321737Y-65085826D01*
X179194222Y-65293910D01*
X179100830Y-65519380D01*
X179100828Y-65519387D01*
X179100828Y-65519388D01*
X179072680Y-65636631D01*
X179043853Y-65756702D01*
X179024706Y-66000000D01*
X171975294Y-66000000D01*
X171956146Y-65756698D01*
X171899172Y-65519388D01*
X171882905Y-65480115D01*
X171805777Y-65293910D01*
X171678262Y-65085826D01*
X171678261Y-65085823D01*
X171640422Y-65041519D01*
X171519759Y-64900241D01*
X171359282Y-64763181D01*
X171334176Y-64741738D01*
X171334173Y-64741737D01*
X171126089Y-64614222D01*
X170900618Y-64520830D01*
X170900621Y-64520830D01*
X170787184Y-64493596D01*
X170663302Y-64463854D01*
X170663300Y-64463853D01*
X170663297Y-64463853D01*
X170420000Y-64444706D01*
X170176702Y-64463853D01*
X170176698Y-64463854D01*
X170026142Y-64500000D01*
X169939380Y-64520830D01*
X169713910Y-64614222D01*
X169505826Y-64741737D01*
X169505823Y-64741738D01*
X169320241Y-64900241D01*
X169161741Y-65085820D01*
X169147729Y-65108685D01*
X169128361Y-65140291D01*
X169076551Y-65187165D01*
X169022635Y-65199500D01*
X167921155Y-65199500D01*
X167766508Y-65230261D01*
X167766498Y-65230264D01*
X167620827Y-65290602D01*
X167620814Y-65290609D01*
X167496642Y-65373580D01*
X167496637Y-65373583D01*
X167489714Y-65378207D01*
X167489711Y-65378210D01*
X163704741Y-69163181D01*
X163643418Y-69196666D01*
X163617060Y-69199500D01*
X131836469Y-69199500D01*
X131769430Y-69179815D01*
X131732660Y-69143321D01*
X131688166Y-69075217D01*
X131638097Y-69020828D01*
X131519744Y-68892262D01*
X131323509Y-68739526D01*
X131323507Y-68739525D01*
X131323506Y-68739524D01*
X131104811Y-68621172D01*
X131104802Y-68621169D01*
X130869616Y-68540429D01*
X130624335Y-68499500D01*
X130375665Y-68499500D01*
X130130383Y-68540429D01*
X129895197Y-68621169D01*
X129895188Y-68621172D01*
X129676493Y-68739524D01*
X129480257Y-68892261D01*
X129311833Y-69075217D01*
X129267340Y-69143321D01*
X129214194Y-69188678D01*
X129163531Y-69199500D01*
X122924500Y-69199500D01*
X122857461Y-69179815D01*
X122811706Y-69127011D01*
X122800500Y-69075500D01*
X122800500Y-68921155D01*
X122800499Y-68921153D01*
X122777499Y-68805526D01*
X122769737Y-68766503D01*
X122759479Y-68741737D01*
X122709397Y-68620827D01*
X122709390Y-68620814D01*
X122621790Y-68489712D01*
X122576784Y-68444706D01*
X122510289Y-68378211D01*
X121304789Y-67172711D01*
X120010292Y-65878213D01*
X120010288Y-65878210D01*
X119879185Y-65790609D01*
X119879172Y-65790602D01*
X119733501Y-65730264D01*
X119733489Y-65730261D01*
X119578845Y-65699500D01*
X119578842Y-65699500D01*
X118977365Y-65699500D01*
X118910326Y-65679815D01*
X118871639Y-65640292D01*
X118838259Y-65585821D01*
X118679759Y-65400241D01*
X118498180Y-65245158D01*
X118494176Y-65241738D01*
X118494173Y-65241737D01*
X118286089Y-65114222D01*
X118060618Y-65020830D01*
X118060621Y-65020830D01*
X117932860Y-64990157D01*
X117823302Y-64963854D01*
X117823300Y-64963853D01*
X117823297Y-64963853D01*
X117580000Y-64944706D01*
X117336702Y-64963853D01*
X117099380Y-65020830D01*
X116873910Y-65114222D01*
X116665826Y-65241737D01*
X116665823Y-65241738D01*
X116480241Y-65400241D01*
X116321738Y-65585823D01*
X116321737Y-65585826D01*
X116194222Y-65793910D01*
X116100830Y-66019380D01*
X116100828Y-66019387D01*
X116100828Y-66019388D01*
X116062845Y-66177594D01*
X116043853Y-66256702D01*
X116024706Y-66500000D01*
X116043853Y-66743297D01*
X116043853Y-66743300D01*
X116043854Y-66743302D01*
X116099139Y-66973578D01*
X116100830Y-66980619D01*
X116194222Y-67206089D01*
X116321737Y-67414173D01*
X116321738Y-67414176D01*
X116375449Y-67477063D01*
X116480241Y-67599759D01*
X116610804Y-67711270D01*
X116665823Y-67758261D01*
X116665825Y-67758261D01*
X116674160Y-67763369D01*
X116873910Y-67885777D01*
X117099381Y-67979169D01*
X117099378Y-67979169D01*
X117099384Y-67979170D01*
X117099388Y-67979172D01*
X117336698Y-68036146D01*
X117580000Y-68055294D01*
X117823302Y-68036146D01*
X118060612Y-67979172D01*
X118286089Y-67885777D01*
X118494179Y-67758259D01*
X118679759Y-67599759D01*
X118838259Y-67414179D01*
X118871638Y-67359708D01*
X118923449Y-67312835D01*
X118977365Y-67300500D01*
X119117060Y-67300500D01*
X119184099Y-67320185D01*
X119204741Y-67336819D01*
X121163181Y-69295259D01*
X121196666Y-69356582D01*
X121199500Y-69382940D01*
X121199500Y-70617060D01*
X121179815Y-70684099D01*
X121163181Y-70704741D01*
X120489711Y-71378211D01*
X120145424Y-71722497D01*
X120084101Y-71755982D01*
X120014409Y-71750998D01*
X119958476Y-71709126D01*
X119954641Y-71703707D01*
X119871789Y-71579711D01*
X119871786Y-71579707D01*
X119214125Y-70922047D01*
X119180640Y-70860724D01*
X119181231Y-70805421D01*
X119196146Y-70743302D01*
X119215294Y-70500000D01*
X119196146Y-70256698D01*
X119139172Y-70019388D01*
X119139169Y-70019380D01*
X119045777Y-69793910D01*
X118918262Y-69585826D01*
X118918261Y-69585823D01*
X118799984Y-69447339D01*
X118759759Y-69400241D01*
X118588994Y-69254394D01*
X118574176Y-69241738D01*
X118574173Y-69241737D01*
X118366089Y-69114222D01*
X118140618Y-69020830D01*
X118140621Y-69020830D01*
X118003122Y-68987819D01*
X117903302Y-68963854D01*
X117903300Y-68963853D01*
X117903297Y-68963853D01*
X117660000Y-68944706D01*
X117416702Y-68963853D01*
X117179380Y-69020830D01*
X116953910Y-69114222D01*
X116745826Y-69241737D01*
X116745823Y-69241738D01*
X116560241Y-69400241D01*
X116401738Y-69585823D01*
X116401737Y-69585826D01*
X116274222Y-69793910D01*
X116180830Y-70019380D01*
X116123853Y-70256702D01*
X116104706Y-70500000D01*
X116123853Y-70743297D01*
X116123853Y-70743300D01*
X116123854Y-70743302D01*
X116166082Y-70919193D01*
X116180830Y-70980619D01*
X116274222Y-71206089D01*
X116401737Y-71414173D01*
X116401738Y-71414176D01*
X116440509Y-71459571D01*
X116560241Y-71599759D01*
X116584909Y-71620827D01*
X116745823Y-71758261D01*
X116745826Y-71758262D01*
X116953910Y-71885777D01*
X117179381Y-71979169D01*
X117179378Y-71979169D01*
X117179384Y-71979170D01*
X117179388Y-71979172D01*
X117416698Y-72036146D01*
X117660000Y-72055294D01*
X117903302Y-72036146D01*
X117965420Y-72021232D01*
X118035200Y-72024722D01*
X118082047Y-72054125D01*
X118413181Y-72385259D01*
X118446666Y-72446582D01*
X118449500Y-72472940D01*
X118449500Y-73367060D01*
X118429815Y-73434099D01*
X118413181Y-73454741D01*
X107989711Y-83878211D01*
X107933960Y-83933962D01*
X107878209Y-83989712D01*
X107790609Y-84120814D01*
X107790602Y-84120827D01*
X107730264Y-84266498D01*
X107730261Y-84266510D01*
X107699500Y-84421153D01*
X107699500Y-99578846D01*
X107730261Y-99733489D01*
X107730264Y-99733501D01*
X107790602Y-99879172D01*
X107790609Y-99879185D01*
X107878210Y-100010288D01*
X107878213Y-100010292D01*
X111486330Y-103618408D01*
X111519815Y-103679731D01*
X111518855Y-103736528D01*
X111514891Y-103752180D01*
X111494357Y-103999994D01*
X111494357Y-104000005D01*
X111514890Y-104247812D01*
X111514892Y-104247824D01*
X111575936Y-104488881D01*
X111675826Y-104716606D01*
X111811833Y-104924782D01*
X111812749Y-104925777D01*
X111942519Y-105066745D01*
X111965324Y-105091517D01*
X111996246Y-105154172D01*
X111988386Y-105223598D01*
X111944239Y-105277753D01*
X111877821Y-105299444D01*
X111874094Y-105299500D01*
X99041519Y-105299500D01*
X98974480Y-105279815D01*
X98953838Y-105263181D01*
X95236819Y-101546162D01*
X95203334Y-101484839D01*
X95200500Y-101458481D01*
X95200500Y-98378711D01*
X102149500Y-98378711D01*
X102149500Y-98621288D01*
X102181161Y-98861785D01*
X102243947Y-99096104D01*
X102318624Y-99276389D01*
X102336776Y-99320212D01*
X102458064Y-99530289D01*
X102458066Y-99530292D01*
X102458067Y-99530293D01*
X102605733Y-99722736D01*
X102605739Y-99722743D01*
X102777256Y-99894260D01*
X102777263Y-99894266D01*
X102890321Y-99981018D01*
X102969711Y-100041936D01*
X103179788Y-100163224D01*
X103325571Y-100223609D01*
X103394764Y-100252270D01*
X103403900Y-100256054D01*
X103638211Y-100318838D01*
X103818586Y-100342584D01*
X103878711Y-100350500D01*
X103878712Y-100350500D01*
X104121289Y-100350500D01*
X104169388Y-100344167D01*
X104361789Y-100318838D01*
X104596100Y-100256054D01*
X104820212Y-100163224D01*
X105030289Y-100041936D01*
X105222738Y-99894265D01*
X105394265Y-99722738D01*
X105541936Y-99530289D01*
X105663224Y-99320212D01*
X105756054Y-99096100D01*
X105818838Y-98861789D01*
X105850500Y-98621288D01*
X105850500Y-98378712D01*
X105849220Y-98368993D01*
X105827542Y-98204328D01*
X105818838Y-98138211D01*
X105756054Y-97903900D01*
X105663224Y-97679788D01*
X105541936Y-97469711D01*
X105394265Y-97277262D01*
X105394260Y-97277256D01*
X105222743Y-97105739D01*
X105222736Y-97105733D01*
X105030293Y-96958067D01*
X105030292Y-96958066D01*
X105030289Y-96958064D01*
X104820212Y-96836776D01*
X104820205Y-96836773D01*
X104596104Y-96743947D01*
X104361785Y-96681161D01*
X104121289Y-96649500D01*
X104121288Y-96649500D01*
X103878712Y-96649500D01*
X103878711Y-96649500D01*
X103638214Y-96681161D01*
X103403895Y-96743947D01*
X103179794Y-96836773D01*
X103179785Y-96836777D01*
X102969706Y-96958067D01*
X102777263Y-97105733D01*
X102777256Y-97105739D01*
X102605739Y-97277256D01*
X102605733Y-97277263D01*
X102458067Y-97469706D01*
X102336777Y-97679785D01*
X102336773Y-97679794D01*
X102243947Y-97903895D01*
X102181161Y-98138214D01*
X102149500Y-98378711D01*
X95200500Y-98378711D01*
X95200500Y-88378711D01*
X102149500Y-88378711D01*
X102149500Y-88378712D01*
X102149500Y-88621288D01*
X102181162Y-88861789D01*
X102212554Y-88978944D01*
X102243947Y-89096104D01*
X102265981Y-89149298D01*
X102336776Y-89320212D01*
X102458064Y-89530289D01*
X102458066Y-89530292D01*
X102458067Y-89530293D01*
X102605733Y-89722736D01*
X102605739Y-89722743D01*
X102777256Y-89894260D01*
X102777262Y-89894265D01*
X102969711Y-90041936D01*
X103179788Y-90163224D01*
X103403900Y-90256054D01*
X103638211Y-90318838D01*
X103818586Y-90342584D01*
X103878711Y-90350500D01*
X103878712Y-90350500D01*
X104121289Y-90350500D01*
X104169388Y-90344167D01*
X104361789Y-90318838D01*
X104596100Y-90256054D01*
X104820212Y-90163224D01*
X105030289Y-90041936D01*
X105222738Y-89894265D01*
X105394265Y-89722738D01*
X105541936Y-89530289D01*
X105663224Y-89320212D01*
X105756054Y-89096100D01*
X105818838Y-88861789D01*
X105850500Y-88621288D01*
X105850500Y-88378712D01*
X105850100Y-88375677D01*
X105833317Y-88248195D01*
X105818838Y-88138211D01*
X105756054Y-87903900D01*
X105663224Y-87679788D01*
X105541936Y-87469711D01*
X105394265Y-87277262D01*
X105394260Y-87277256D01*
X105222743Y-87105739D01*
X105222736Y-87105733D01*
X105030293Y-86958067D01*
X105030292Y-86958066D01*
X105030289Y-86958064D01*
X104820212Y-86836776D01*
X104795213Y-86826421D01*
X104596104Y-86743947D01*
X104361785Y-86681161D01*
X104121289Y-86649500D01*
X104121288Y-86649500D01*
X103878712Y-86649500D01*
X103878711Y-86649500D01*
X103638214Y-86681161D01*
X103403895Y-86743947D01*
X103179794Y-86836773D01*
X103179785Y-86836777D01*
X102997851Y-86941817D01*
X102973484Y-86955886D01*
X102969706Y-86958067D01*
X102777263Y-87105733D01*
X102777256Y-87105739D01*
X102605739Y-87277256D01*
X102605733Y-87277263D01*
X102458067Y-87469706D01*
X102336777Y-87679785D01*
X102336773Y-87679794D01*
X102243947Y-87903895D01*
X102181161Y-88138214D01*
X102149500Y-88378711D01*
X95200500Y-88378711D01*
X95200500Y-78378711D01*
X102149500Y-78378711D01*
X102149500Y-78621288D01*
X102181161Y-78861785D01*
X102243947Y-79096104D01*
X102303259Y-79239295D01*
X102336776Y-79320212D01*
X102458064Y-79530289D01*
X102458066Y-79530292D01*
X102458067Y-79530293D01*
X102605733Y-79722736D01*
X102605739Y-79722743D01*
X102777256Y-79894260D01*
X102777262Y-79894265D01*
X102969711Y-80041936D01*
X103179788Y-80163224D01*
X103403900Y-80256054D01*
X103638211Y-80318838D01*
X103818586Y-80342584D01*
X103878711Y-80350500D01*
X103878712Y-80350500D01*
X104121289Y-80350500D01*
X104169388Y-80344167D01*
X104361789Y-80318838D01*
X104596100Y-80256054D01*
X104820212Y-80163224D01*
X105030289Y-80041936D01*
X105222738Y-79894265D01*
X105394265Y-79722738D01*
X105541936Y-79530289D01*
X105663224Y-79320212D01*
X105756054Y-79096100D01*
X105818838Y-78861789D01*
X105850500Y-78621288D01*
X105850500Y-78378712D01*
X105818838Y-78138211D01*
X105756054Y-77903900D01*
X105663224Y-77679788D01*
X105541936Y-77469711D01*
X105394265Y-77277262D01*
X105394260Y-77277256D01*
X105222743Y-77105739D01*
X105222736Y-77105733D01*
X105030293Y-76958067D01*
X105030292Y-76958066D01*
X105030289Y-76958064D01*
X104820212Y-76836776D01*
X104810471Y-76832741D01*
X104596104Y-76743947D01*
X104361785Y-76681161D01*
X104121289Y-76649500D01*
X104121288Y-76649500D01*
X103878712Y-76649500D01*
X103878711Y-76649500D01*
X103638214Y-76681161D01*
X103403895Y-76743947D01*
X103179794Y-76836773D01*
X103179785Y-76836777D01*
X102969706Y-76958067D01*
X102777263Y-77105733D01*
X102777256Y-77105739D01*
X102605739Y-77277256D01*
X102605733Y-77277263D01*
X102458067Y-77469706D01*
X102458064Y-77469710D01*
X102458064Y-77469711D01*
X102450180Y-77483366D01*
X102336777Y-77679785D01*
X102336773Y-77679794D01*
X102243947Y-77903895D01*
X102181161Y-78138214D01*
X102149500Y-78378711D01*
X95200500Y-78378711D01*
X95200500Y-74190519D01*
X95220185Y-74123480D01*
X95272989Y-74077725D01*
X95342147Y-74067781D01*
X95405703Y-74096806D01*
X95412181Y-74102838D01*
X95853453Y-74544111D01*
X95853454Y-74544112D01*
X95968192Y-74620777D01*
X96095667Y-74673578D01*
X96095672Y-74673580D01*
X96095676Y-74673580D01*
X96095677Y-74673581D01*
X96231003Y-74700500D01*
X96231006Y-74700500D01*
X106568996Y-74700500D01*
X106660040Y-74682389D01*
X106704328Y-74673580D01*
X106818982Y-74626089D01*
X106831807Y-74620777D01*
X106831808Y-74620776D01*
X106831811Y-74620775D01*
X106946543Y-74544114D01*
X108044114Y-73446543D01*
X108120775Y-73331811D01*
X108135333Y-73296666D01*
X108149202Y-73263181D01*
X108173580Y-73204328D01*
X108200500Y-73068994D01*
X108200500Y-72931006D01*
X108200500Y-71958645D01*
X108220185Y-71891606D01*
X108259710Y-71852918D01*
X108414174Y-71758262D01*
X108414176Y-71758261D01*
X108414176Y-71758260D01*
X108414179Y-71758259D01*
X108599759Y-71599759D01*
X108758259Y-71414179D01*
X108885777Y-71206089D01*
X108979172Y-70980612D01*
X109036146Y-70743302D01*
X109055294Y-70500000D01*
X109036146Y-70256698D01*
X108979172Y-70019388D01*
X108979169Y-70019380D01*
X108885777Y-69793910D01*
X108758262Y-69585826D01*
X108758261Y-69585823D01*
X108639984Y-69447339D01*
X108599759Y-69400241D01*
X108428994Y-69254394D01*
X108414176Y-69241738D01*
X108414173Y-69241737D01*
X108206089Y-69114222D01*
X107980618Y-69020830D01*
X107980621Y-69020830D01*
X107843122Y-68987819D01*
X107743302Y-68963854D01*
X107743300Y-68963853D01*
X107743297Y-68963853D01*
X107500000Y-68944706D01*
X107256702Y-68963853D01*
X107019380Y-69020830D01*
X106793910Y-69114222D01*
X106585826Y-69241737D01*
X106585823Y-69241738D01*
X106400241Y-69400241D01*
X106241738Y-69585823D01*
X106241737Y-69585826D01*
X106114222Y-69793910D01*
X106020830Y-70019380D01*
X105963853Y-70256702D01*
X105944706Y-70500000D01*
X105963853Y-70743297D01*
X105963853Y-70743300D01*
X105963854Y-70743302D01*
X106006082Y-70919193D01*
X106020830Y-70980619D01*
X106114222Y-71206089D01*
X106241737Y-71414173D01*
X106241738Y-71414176D01*
X106280509Y-71459571D01*
X106400241Y-71599759D01*
X106424909Y-71620827D01*
X106585823Y-71758261D01*
X106585825Y-71758262D01*
X106740290Y-71852918D01*
X106787165Y-71904729D01*
X106799500Y-71958645D01*
X106799500Y-72658481D01*
X106779815Y-72725520D01*
X106763181Y-72746162D01*
X106246162Y-73263181D01*
X106184839Y-73296666D01*
X106158481Y-73299500D01*
X96641519Y-73299500D01*
X96574480Y-73279815D01*
X96553838Y-73263181D01*
X96036819Y-72746162D01*
X96003334Y-72684839D01*
X96000500Y-72658481D01*
X96000500Y-69500000D01*
X98429783Y-69500000D01*
X98448623Y-69739382D01*
X98504674Y-69972853D01*
X98504678Y-69972865D01*
X98596565Y-70194702D01*
X98665434Y-70307086D01*
X98722028Y-70399439D01*
X98877973Y-70582027D01*
X99060561Y-70737972D01*
X99069280Y-70743315D01*
X99265297Y-70863434D01*
X99314596Y-70883854D01*
X99487137Y-70955323D01*
X99720621Y-71011377D01*
X99960000Y-71030217D01*
X100199379Y-71011377D01*
X100432863Y-70955323D01*
X100654704Y-70863433D01*
X100859439Y-70737972D01*
X101042027Y-70582027D01*
X101167826Y-70434735D01*
X101226329Y-70396544D01*
X101252167Y-70394278D01*
X102100000Y-69546446D01*
X102100000Y-69552661D01*
X102127259Y-69654394D01*
X102179920Y-69745606D01*
X102254394Y-69820080D01*
X102345606Y-69872741D01*
X102447339Y-69900000D01*
X102453553Y-69900000D01*
X101610236Y-70743314D01*
X101805523Y-70862987D01*
X101805526Y-70862989D01*
X102027280Y-70954841D01*
X102027288Y-70954844D01*
X102260704Y-71010883D01*
X102500000Y-71029715D01*
X102739295Y-71010883D01*
X102972711Y-70954844D01*
X102972719Y-70954841D01*
X103194473Y-70862989D01*
X103194476Y-70862987D01*
X103389762Y-70743315D01*
X103389762Y-70743314D01*
X102546447Y-69900000D01*
X102552661Y-69900000D01*
X102654394Y-69872741D01*
X102745606Y-69820080D01*
X102820080Y-69745606D01*
X102872741Y-69654394D01*
X102900000Y-69552661D01*
X102900000Y-69546448D01*
X103743314Y-70389762D01*
X103743315Y-70389762D01*
X103862987Y-70194476D01*
X103862989Y-70194473D01*
X103954841Y-69972719D01*
X103954844Y-69972711D01*
X104010883Y-69739295D01*
X104029715Y-69500000D01*
X104010883Y-69260704D01*
X103954844Y-69027288D01*
X103954841Y-69027280D01*
X103862989Y-68805526D01*
X103862987Y-68805523D01*
X103743314Y-68610236D01*
X102900000Y-69453551D01*
X102900000Y-69447339D01*
X102872741Y-69345606D01*
X102820080Y-69254394D01*
X102745606Y-69179920D01*
X102654394Y-69127259D01*
X102552661Y-69100000D01*
X102546448Y-69100000D01*
X103432291Y-68214156D01*
X103432472Y-68214337D01*
X103454829Y-68189798D01*
X103478292Y-68178710D01*
X103563367Y-68148942D01*
X103719885Y-68050595D01*
X103850595Y-67919885D01*
X103948942Y-67763367D01*
X104009994Y-67588889D01*
X104009994Y-67588887D01*
X104009995Y-67588885D01*
X104022356Y-67479172D01*
X104025500Y-67451271D01*
X104025499Y-66500000D01*
X105864706Y-66500000D01*
X105883853Y-66743297D01*
X105883853Y-66743300D01*
X105883854Y-66743302D01*
X105939139Y-66973578D01*
X105940830Y-66980619D01*
X106034222Y-67206089D01*
X106161737Y-67414173D01*
X106161738Y-67414176D01*
X106215449Y-67477063D01*
X106320241Y-67599759D01*
X106450804Y-67711270D01*
X106505823Y-67758261D01*
X106505825Y-67758261D01*
X106514160Y-67763369D01*
X106713910Y-67885777D01*
X106939381Y-67979169D01*
X106939378Y-67979169D01*
X106939384Y-67979170D01*
X106939388Y-67979172D01*
X107176698Y-68036146D01*
X107420000Y-68055294D01*
X107663302Y-68036146D01*
X107900612Y-67979172D01*
X108126089Y-67885777D01*
X108334179Y-67758259D01*
X108519759Y-67599759D01*
X108678259Y-67414179D01*
X108805777Y-67206089D01*
X108899172Y-66980612D01*
X108956146Y-66743302D01*
X108975294Y-66500000D01*
X108956146Y-66256698D01*
X108899172Y-66019388D01*
X108899169Y-66019380D01*
X108805777Y-65793910D01*
X108678262Y-65585826D01*
X108678261Y-65585823D01*
X108636314Y-65536710D01*
X108519759Y-65400241D01*
X108338180Y-65245158D01*
X108334176Y-65241738D01*
X108334173Y-65241737D01*
X108126089Y-65114222D01*
X107900618Y-65020830D01*
X107900621Y-65020830D01*
X107772860Y-64990157D01*
X107663302Y-64963854D01*
X107663300Y-64963853D01*
X107663297Y-64963853D01*
X107420000Y-64944706D01*
X107176702Y-64963853D01*
X106939380Y-65020830D01*
X106713910Y-65114222D01*
X106505826Y-65241737D01*
X106505823Y-65241738D01*
X106320241Y-65400241D01*
X106161738Y-65585823D01*
X106161737Y-65585826D01*
X106034222Y-65793910D01*
X105940830Y-66019380D01*
X105940828Y-66019387D01*
X105940828Y-66019388D01*
X105902845Y-66177594D01*
X105883853Y-66256702D01*
X105864706Y-66500000D01*
X104025499Y-66500000D01*
X104025499Y-65948730D01*
X104009994Y-65811111D01*
X103948942Y-65636633D01*
X103931833Y-65609405D01*
X103868363Y-65508393D01*
X103850595Y-65480115D01*
X103719885Y-65349405D01*
X103631567Y-65293911D01*
X103563369Y-65251059D01*
X103563368Y-65251058D01*
X103563367Y-65251058D01*
X103503932Y-65230261D01*
X103388885Y-65190004D01*
X103251275Y-65174500D01*
X101748727Y-65174500D01*
X101748723Y-65174501D01*
X101611113Y-65190005D01*
X101436631Y-65251058D01*
X101280114Y-65349405D01*
X101149405Y-65480114D01*
X101149403Y-65480117D01*
X101131636Y-65508393D01*
X101079301Y-65554684D01*
X101010247Y-65565331D01*
X100946399Y-65536955D01*
X100946111Y-65536710D01*
X100859147Y-65462435D01*
X100859142Y-65462432D01*
X100654476Y-65337012D01*
X100654473Y-65337010D01*
X100432719Y-65245158D01*
X100432711Y-65245155D01*
X100199295Y-65189116D01*
X99960000Y-65170284D01*
X99720704Y-65189116D01*
X99487288Y-65245155D01*
X99487280Y-65245158D01*
X99265526Y-65337010D01*
X99265523Y-65337012D01*
X99070236Y-65456684D01*
X99913553Y-66300000D01*
X99907339Y-66300000D01*
X99805606Y-66327259D01*
X99714394Y-66379920D01*
X99639920Y-66454394D01*
X99587259Y-66545606D01*
X99560000Y-66647339D01*
X99560000Y-66653552D01*
X98716684Y-65810236D01*
X98597012Y-66005523D01*
X98597010Y-66005526D01*
X98505158Y-66227280D01*
X98505155Y-66227288D01*
X98449116Y-66460704D01*
X98430284Y-66700000D01*
X98449116Y-66939295D01*
X98505155Y-67172711D01*
X98505158Y-67172719D01*
X98597010Y-67394473D01*
X98597012Y-67394476D01*
X98716684Y-67589762D01*
X99560000Y-66746446D01*
X99560000Y-66752661D01*
X99587259Y-66854394D01*
X99639920Y-66945606D01*
X99714394Y-67020080D01*
X99805606Y-67072741D01*
X99907339Y-67100000D01*
X99913551Y-67100000D01*
X99070236Y-67943314D01*
X99152913Y-67993979D01*
X99199788Y-68045791D01*
X99211211Y-68114720D01*
X99183554Y-68178883D01*
X99152914Y-68205433D01*
X99060562Y-68262027D01*
X98877973Y-68417973D01*
X98722026Y-68600563D01*
X98596565Y-68805297D01*
X98504678Y-69027134D01*
X98504674Y-69027146D01*
X98448623Y-69260617D01*
X98429783Y-69500000D01*
X96000500Y-69500000D01*
X96000500Y-65041519D01*
X96020185Y-64974480D01*
X96036819Y-64953838D01*
X96753838Y-64236819D01*
X96815161Y-64203334D01*
X96841519Y-64200500D01*
X125527110Y-64200500D01*
X125594149Y-64220185D01*
X125614791Y-64236819D01*
X128222082Y-66844111D01*
X128222083Y-66844112D01*
X128336821Y-66920777D01*
X128464296Y-66973578D01*
X128464301Y-66973580D01*
X128464305Y-66973580D01*
X128464306Y-66973581D01*
X128599632Y-67000500D01*
X128599635Y-67000500D01*
X160768996Y-67000500D01*
X160868976Y-66980612D01*
X160904328Y-66973580D01*
X160987100Y-66939295D01*
X161031807Y-66920777D01*
X161031808Y-66920776D01*
X161031811Y-66920775D01*
X161146543Y-66844114D01*
X165253837Y-62736818D01*
X165315160Y-62703334D01*
X165341518Y-62700500D01*
X191158481Y-62700500D01*
X191225520Y-62720185D01*
G37*
%TD.AperFunction*%
%TA.AperFunction,Conductor*%
G36*
X148614075Y-103732993D02*
G01*
X148679901Y-103847007D01*
X148772993Y-103940099D01*
X148887007Y-104005925D01*
X148950590Y-104022962D01*
X148172057Y-104801494D01*
X148374138Y-104925331D01*
X148599542Y-105018696D01*
X148750451Y-105054926D01*
X148811043Y-105089717D01*
X148843207Y-105151743D01*
X148836731Y-105221312D01*
X148793671Y-105276336D01*
X148727699Y-105299345D01*
X148721504Y-105299500D01*
X147364500Y-105299500D01*
X147297461Y-105279815D01*
X147251706Y-105227011D01*
X147240500Y-105175500D01*
X147240500Y-104998645D01*
X147260185Y-104931606D01*
X147299710Y-104892918D01*
X147454174Y-104798262D01*
X147454176Y-104798261D01*
X147454176Y-104798260D01*
X147454179Y-104798259D01*
X147639759Y-104639759D01*
X147761914Y-104496733D01*
X147784372Y-104482072D01*
X148597037Y-103669408D01*
X148614075Y-103732993D01*
G37*
%TD.AperFunction*%
%TA.AperFunction,Conductor*%
G36*
X147903131Y-102009493D02*
G01*
X147904290Y-102010832D01*
X147975793Y-102094552D01*
X147980241Y-102099759D01*
X148073975Y-102179815D01*
X148123263Y-102221911D01*
X148137924Y-102244370D01*
X148950591Y-103057037D01*
X148887007Y-103074075D01*
X148772993Y-103139901D01*
X148679901Y-103232993D01*
X148614075Y-103347007D01*
X148597037Y-103410591D01*
X147796419Y-102609973D01*
X147761911Y-102583263D01*
X147748755Y-102567859D01*
X147639759Y-102440241D01*
X147639757Y-102440239D01*
X147639756Y-102440238D01*
X147550832Y-102364290D01*
X147512638Y-102305784D01*
X147512139Y-102235916D01*
X147549493Y-102176869D01*
X147550832Y-102175710D01*
X147619291Y-102117240D01*
X147639759Y-102099759D01*
X147715710Y-102010832D01*
X147774216Y-101972638D01*
X147844084Y-101972139D01*
X147903131Y-102009493D01*
G37*
%TD.AperFunction*%
%TD*%
M02*
