M48
; DRILL file {KiCad 8.0.4} date 2025-10-07T11:11:46+0200
; FORMAT={-:-/ absolute / inch / decimal}
; #@! TF.CreationDate,2025-10-07T11:11:46+02:00
; #@! TF.GenerationSoftware,Kicad,Pcbnew,8.0.4
; #@! TF.FileFunction,Plated,1,2,PTH
FMAT,2
INCH
; #@! TA.AperFunction,Plated,PTH,ViaDrill
T1C0.0315
; #@! TA.AperFunction,Plated,PTH,ComponentDrill
T2C0.0315
; #@! TA.AperFunction,Plated,PTH,ComponentDrill
T3C0.0354
; #@! TA.AperFunction,Plated,PTH,ComponentDrill
T4C0.0394
%
G90
G05
T1
X3.6811Y-4.1339
X5.1378Y-2.7559
X5.2165Y-2.4803
X6.1024Y-2.4803
X6.2992Y-4.0157
T2
X3.9354Y-2.626
X3.9354Y-2.7362
X4.0354Y-2.626
X4.0354Y-2.7362
X4.2291Y-2.6181
X4.2323Y-2.7756
X4.6291Y-2.6181
X4.6323Y-2.7756
X4.7606Y-3.5827
X4.7606Y-3.7598
X4.8031Y-3.9567
X4.8031Y-4.0551
X4.8819Y-2.9071
X4.8819Y-3.3071
X5.0787Y-3.0087
X5.0787Y-3.1087
X5.1606Y-3.5827
X5.1606Y-3.7598
X5.189Y-3.0087
X5.189Y-3.1087
X5.378Y-3.6614
X5.378Y-3.7614
X5.3937Y-2.8512
X5.3937Y-3.2512
X5.4882Y-3.6614
X5.4882Y-3.7614
X5.5118Y-2.4803
X5.6118Y-2.4803
X5.7118Y-2.4803
X5.8118Y-2.4803
X5.8484Y-3.6614
X5.8484Y-3.7614
X5.9449Y-2.8512
X5.9449Y-3.2512
X5.9587Y-3.6614
X5.9587Y-3.7614
X6.1417Y-3.0102
X6.1417Y-3.1102
X6.178Y-3.5827
X6.178Y-3.7598
X6.252Y-3.0102
X6.252Y-3.1102
X6.4567Y-2.9102
X6.4567Y-3.3102
X6.578Y-3.5827
X6.578Y-3.7598
X6.7094Y-2.5984
X6.7094Y-2.7559
X7.1094Y-2.5984
X7.1094Y-2.7559
X7.3425Y-2.6362
X7.3425Y-2.7362
X7.4528Y-2.6362
X7.4528Y-2.7362
T3
X4.4488Y-3.8976
X4.4488Y-4.0945
T4
X5.4693Y-3.9764
X5.4693Y-4.0764
X5.5693Y-3.9764
X5.5693Y-4.0764
X5.6693Y-3.9764
X5.6693Y-4.0764
X5.7693Y-3.9764
X5.7693Y-4.0764
X5.8693Y-3.9764
X5.8693Y-4.0764
M30
